<svg width="1280" height="200" viewBox="0 0 1280 200" fill="none" xmlns="http://www.w3.org/2000/svg">
<g clip-path="url(#clip0_687_2)">
<rect width="1280" height="200" fill="white"/>
<path d="M1274 -67.1743H-23V403.252H1274V-67.1743Z" fill="white"/>
<path d="M1184 -210H-113V260.426H1184V-210Z" fill="white"/>
<path d="M1110.41 -13.5396C1077.54 11.8152 1061.19 56.1876 1075.07 98.1063C1111.16 207.15 1292.79 181.222 1309.87 71.354C1314.8 39.6043 1306.66 7.80296 1282.89 -13.2691C1237.47 -53.552 1156.87 -49.3724 1110.41 -13.5396Z" fill="#4D7C0F"/>
<path d="M1104.09 -15.2202C1070.27 8.94957 1054.39 52.4526 1070.21 94.4164C1111.35 203.57 1301.52 183.206 1316.25 74.7933C1320.5 43.4622 1307.78 3.7524 1282.18 -17.8349C1233.24 -59.1032 1151.88 -49.3786 1104.09 -15.2202Z" stroke="#4D7C0F" stroke-width="2.0198" stroke-miterlimit="10"/>
<path d="M1056.47 143.653C1056.95 140.037 1057.42 136.42 1057.9 132.804C1058.02 131.102 1058.15 129.4 1058.23 127.693C1058.27 126.925 1058.56 126.543 1059.36 126.646C1060.81 127.141 1062.32 127.104 1063.83 127.118C1064.25 127.429 1064.7 127.481 1065.18 127.325C1066.68 127.589 1068.13 128.146 1069.68 128.042C1070.54 128.16 1070.54 128.811 1070.57 129.452C1071.05 138.382 1070.53 147.194 1067.3 155.648C1065.34 160.796 1062.42 165.299 1057.85 168.562C1054.98 167.114 1052.52 165.19 1050.8 162.423C1054.01 157.666 1054.84 152.116 1055.97 146.675C1056.17 145.671 1056.3 144.662 1056.47 143.653Z" fill="#7E6545"/>
<path d="M1050.79 162.418C1052.52 165.186 1054.97 167.109 1057.84 168.557C1058.64 169.769 1058.53 170.759 1057.27 171.631C1056.26 172.329 1055.58 173.479 1054.28 173.8C1054.08 173.687 1053.82 173.625 1053.68 173.456C1050.62 169.566 1047.75 171.207 1045.54 173.456C1044.17 174.851 1042.73 175.568 1040.93 175.921C1035.78 176.93 1034.36 178.491 1033.67 183.819C1031.77 183.395 1029.95 184.37 1028.07 184.139C1027.3 184.045 1026.17 184.715 1025.86 183.503C1025.61 182.503 1026.57 182.022 1027.25 181.513C1029.39 179.92 1031.83 178.807 1033.86 177.011C1038.28 173.088 1042.1 168.618 1045.91 164.144C1047.3 162.508 1048.39 160.839 1050.79 162.418Z" fill="#AC8B73"/>
<path d="M1035.67 186.115C1035.87 186.111 1036.06 186.101 1036.25 186.096C1036.06 186.101 1035.87 186.106 1035.67 186.115Z" fill="#AC8B73"/>
<path d="M771.731 81.374C772.004 82.0294 771.476 82.1614 771.071 82.3736C771.193 81.9775 771.193 81.4966 771.731 81.374Z" fill="#DCC7A8"/>
<path d="M1035.67 186.115C1033.6 186.577 1033.26 185.53 1033.67 183.824C1034.36 178.501 1035.78 176.935 1040.93 175.926C1042.73 175.573 1044.17 174.856 1045.54 173.46C1047.75 171.211 1050.63 169.571 1053.68 173.46C1053.82 173.625 1054.08 173.691 1054.28 173.805C1054.31 173.96 1054.3 174.13 1054.37 174.262C1056.66 178.821 1057.3 178.939 1060.91 175.587C1062 174.573 1063.12 173.559 1064.36 172.748C1066.26 171.504 1067.33 171.838 1068.28 173.889C1068.86 175.158 1069.24 176.52 1069.77 178.01C1071.85 175.285 1074.59 173.611 1077.39 172.074C1080.76 170.226 1082.85 170.867 1084.91 174.13C1086.08 175.978 1086.67 177.996 1086.58 180.165C1086.49 182.273 1087.41 182.57 1089.19 181.966C1092.62 180.816 1095.9 179.297 1099.2 177.85C1101.88 176.671 1103.26 176.511 1104.48 179.434C1105.2 181.165 1106.92 181.848 1108.75 181.853C1110.24 181.858 1111.73 181.74 1113.21 181.518C1116.69 180.995 1118.71 181.297 1122.39 183.154C1093.54 184.14 1064.9 185.116 1036.25 186.092C1036.06 186.101 1035.87 186.106 1035.67 186.115Z" fill="#623B17"/>
<path d="M1174.32 78.9744C1179.5 84.1183 1179.76 90.3891 1178.48 97.0182C1178.34 97.7773 1178.22 98.5458 1178.09 99.3096C1177.91 99.6444 1177.7 99.965 1177.56 100.314C1175.01 106.575 1171.83 112.45 1167.59 117.778C1165.98 119.8 1163.75 121.201 1162.42 123.44C1159.67 124.058 1157.5 125.85 1155.05 127.08C1154.88 127.245 1154.72 127.415 1154.55 127.58L1154.57 127.566C1153.7 127.387 1152.9 127.693 1152.11 128.004C1149.39 129.075 1146.56 129.763 1143.7 130.305C1143.86 127.307 1145.09 124.718 1146.81 122.337C1151.67 115.637 1157.72 110.036 1163.53 104.208C1166.79 100.936 1168.51 97.0795 1168.22 92.3882C1168.04 89.3942 1166.34 86.9614 1165.4 84.2456C1166.45 84.3587 1167.14 83.6327 1167.92 83.1423C1170.07 81.7891 1172.19 80.37 1174.32 78.9744Z" fill="#B9B8D6"/>
<path d="M1174.32 78.9741C1172.19 80.3697 1170.07 81.7888 1167.92 83.1514C1167.14 83.6371 1166.45 84.3632 1165.4 84.25C1165.08 84.0661 1164.76 83.887 1164.44 83.7078C1157.68 78.9976 1156.13 71.9536 1156.58 64.4758C1156.89 59.2234 1156.86 53.9947 1156.85 48.7564C1156.84 44.6639 1155.01 42.4008 1151.5 41.9717C1149.25 41.6983 1147.11 42.5611 1145.15 43.8152C1143.85 44.6498 1142.98 46.0878 1141.37 46.4744C1141.4 44.1123 1142.11 42.0943 1144.26 40.8119C1147.08 39.2229 1150.08 38.0819 1153.26 37.4879C1153.85 37.2993 1154.45 37.9264 1155.03 37.4737C1155.61 37.5397 1156.19 37.601 1156.77 37.667C1157.89 38.247 1159.01 38.8269 1160.13 39.4068C1162.13 40.7694 1163.17 43.009 1164.92 44.5979C1168.42 52.8065 1170.94 61.3357 1173.09 69.9734C1173.82 72.9107 1174.69 75.8717 1174.32 78.9741Z" fill="#DCC7A8"/>
<path d="M1164.44 83.7078C1164.76 83.8869 1165.08 84.0708 1165.4 84.25C1166.34 86.9657 1168.04 89.3986 1168.22 92.3926C1168.51 97.0839 1166.79 100.941 1163.53 104.213C1157.72 110.04 1151.67 115.642 1146.81 122.341C1145.09 124.722 1143.86 127.311 1143.7 130.31C1143.56 130.376 1143.42 130.427 1143.28 130.465C1142.32 130.446 1141.36 130.423 1140.4 130.404C1138.67 129.678 1138.54 128.263 1138.9 126.717C1140.06 121.677 1142.06 116.9 1143.72 112.016C1146.3 104.378 1148.96 96.7633 1151.56 89.1299C1151.73 88.6254 1151.68 88.0502 1151.74 87.5032C1152.42 86.829 1152.88 86.0039 1154.14 86.0228C1157.73 86.0793 1161.13 85.0562 1164.44 83.7078Z" fill="#D1CDE4"/>
<path d="M1144.62 70.5675C1143.6 70.5439 1143.31 71.4491 1143.01 72.0762C1141.08 76.2725 1137.33 78.1678 1133.39 79.8511C1126.53 82.7884 1119.39 84.7498 1112.06 86.2303C1109.23 86.8008 1106.67 88.682 1103.95 89.8796C1101.41 90.9923 1098.86 91.5581 1096.53 89.3374C1100.26 87.9889 1100.34 87.8711 1099.83 84.7121C1100.24 83.241 1102.33 84.2076 1102.72 82.7083C1103.01 82.7083 1103.31 82.7083 1103.61 82.7083C1104.26 83.4768 1104.9 83.4626 1105.53 82.68C1106.61 82.746 1107.69 82.812 1108.77 82.8733C1109.11 84.0001 1109.89 83.6465 1110.67 83.4956C1113.52 82.9487 1115.95 81.473 1118.13 79.7285C1122.28 76.395 1126.4 73.1276 1131.7 71.7273C1133.79 71.1757 1135.26 69.8697 1136.01 67.5829C1138.09 61.2556 1141.21 55.4044 1144.65 49.7136C1146.18 47.1864 1148.24 45.6682 1151.23 45.5173C1153.59 45.8144 1154.7 48.4076 1153.81 51.2365C1152.35 55.9089 1150.05 60.1664 1147.69 64.424C1146.6 66.4184 1144.71 68.0544 1144.62 70.5675Z" fill="#E3988A"/>
<path d="M1199.31 175.167C1199.94 173.748 1200.56 172.324 1201.2 170.91C1202.08 168.972 1201.64 167.204 1200.37 165.662C1197.8 162.531 1195.24 159.377 1192.5 156.393C1187.27 150.697 1181.87 145.152 1176.63 139.461C1174.89 137.561 1173.68 135.26 1172.93 132.757C1175.57 133.167 1178.22 133.422 1180.89 133.191C1183.07 136.133 1186.08 138.146 1188.96 140.286C1192.7 143.073 1196.5 145.628 1199.07 149.848C1202.6 155.657 1204.84 161.932 1207.18 168.213C1207.6 169.34 1207.52 170.754 1208.83 171.438C1206.64 175.191 1203.11 175.525 1199.31 175.167Z" fill="#F5B6AD"/>
<path d="M1144.62 70.5677C1144.71 68.0546 1146.6 66.4186 1147.7 64.4242C1150.06 60.1667 1152.37 55.9138 1153.82 51.2367C1154.71 48.4078 1153.6 45.8099 1151.24 45.5175C1149.21 44.2304 1146.03 44.8763 1144.46 46.998C1143.35 48.4973 1142.39 50.1051 1141.36 51.661C1141.2 51.5007 1141.04 51.3404 1140.89 51.1801C1140.88 50.2183 1140.8 49.2423 1141.33 48.3606C1141.31 48.1532 1141.28 47.9504 1141.25 47.743C1141.3 47.3186 1141.33 46.8943 1141.38 46.47C1142.98 46.0833 1143.85 44.6453 1145.15 43.8108C1147.11 42.5566 1149.26 41.6938 1151.51 41.9672C1155.01 42.3963 1156.85 44.6594 1156.86 48.7519C1156.87 53.9855 1156.9 59.219 1156.58 64.4713C1156.14 71.9491 1157.69 78.9884 1164.44 83.7033C1161.14 85.0518 1157.74 86.0749 1154.14 86.023C1152.88 86.0042 1152.42 86.834 1151.74 87.5035C1148.91 82.0531 1146.15 76.565 1144.62 70.5677Z" fill="#D8B994"/>
<path d="M1143.27 130.47C1143.42 130.432 1143.56 130.38 1143.69 130.314C1146.56 129.772 1149.39 129.084 1152.11 128.014C1152.9 127.702 1153.69 127.396 1154.57 127.575C1153.04 130.8 1154.2 133.752 1155.35 136.788C1157.3 141.937 1158.41 147.241 1158.45 152.814C1158.5 158.594 1158.44 164.389 1159.2 170.15C1159.47 172.159 1160.83 173.691 1161.18 175.615C1160.21 176.223 1159.24 176.831 1158.26 177.44C1157.42 177.85 1156.58 178.293 1155.72 178.67C1153.16 179.797 1150.59 180.726 1147.93 178.944C1148.38 178.024 1149.25 177.737 1150.13 177.35C1153.06 176.063 1155.06 174.059 1155.71 170.683C1156.19 168.109 1155.64 165.704 1155.17 163.295C1153.63 155.383 1149.77 148.358 1146.5 141.107C1144.98 137.717 1143.06 134.402 1143.27 130.47Z" fill="#E3988A"/>
<path d="M1162.42 123.445C1163.75 121.205 1165.98 119.805 1167.59 117.782C1171.83 112.45 1175.01 106.58 1177.56 100.318C1177.7 99.9696 1177.91 99.649 1178.09 99.3142C1179.9 106.363 1182.43 113.129 1185.64 119.673C1187.38 123.204 1188.61 126.962 1186.14 130.777C1184.4 131.441 1182.89 132.677 1180.94 132.799C1179.64 132.474 1179.4 131.276 1179.14 130.291C1178.36 127.24 1176.23 125.741 1173.47 124.652C1169.91 123.242 1166.23 124.025 1162.61 123.77C1162.54 123.667 1162.48 123.558 1162.42 123.445Z" fill="#9F9DB3"/>
<path d="M1063.83 127.118C1062.33 127.109 1060.82 127.142 1059.36 126.647C1059.93 120.013 1060.09 113.336 1061.54 106.797C1064.77 92.162 1073.92 83.2791 1088.21 79.4082C1089.26 79.1206 1090.31 78.8236 1091.37 78.5313C1092.67 78.7293 1093.87 78.1399 1095.13 78.0173C1095.9 78.0268 1096.68 78.0786 1097.45 78.0456C1099.06 77.9749 1100.05 78.7576 1100.1 80.2993C1100.15 81.6478 1099.21 82.1334 1097.86 82.4257C1095.82 82.8689 1093.64 82.3833 1091.7 83.397C1091.39 83.3829 1091.06 83.2886 1090.77 83.3593C1078.58 86.2542 1069.82 92.9776 1066.38 105.472C1064.44 112.544 1064.19 119.843 1063.83 127.118Z" fill="#9F7D54"/>
<path d="M1069.68 128.037C1068.12 128.146 1066.67 127.589 1065.18 127.321C1065.75 122.658 1066.23 117.98 1066.9 113.327C1068.07 105.189 1071.13 97.9469 1077.36 92.3079C1082.11 88.0174 1087.82 85.8155 1093.98 84.552C1095 84.5991 1096.05 84.9527 1097.01 84.2832C1097.95 84.4246 1098.89 84.5661 1099.82 84.7075C1100.34 87.8665 1100.25 87.9844 1096.53 89.3328C1093.78 88.6633 1091.27 89.7053 1088.81 90.6059C1080.9 93.5102 1075.51 98.9936 1072.91 107.023C1070.72 113.836 1070.06 120.927 1069.68 128.037Z" fill="#AC8B73"/>
<path d="M1143.27 130.47C1143.06 134.407 1144.98 137.722 1146.51 141.107C1149.77 148.363 1153.64 155.384 1155.17 163.295C1155.64 165.705 1156.2 168.109 1155.71 170.683C1155.07 174.059 1153.07 176.063 1150.13 177.35C1149.25 177.737 1148.39 178.025 1147.93 178.944C1147.14 178.482 1146.36 178.02 1145.57 177.558C1146.33 176.893 1147.04 176.167 1147.86 175.578C1150.36 173.762 1150.69 171.386 1150.1 168.519C1148.02 158.387 1144.73 148.594 1141.84 138.688C1141.06 135.987 1140.3 133.266 1140.4 130.404C1141.36 130.428 1142.32 130.447 1143.27 130.47Z" fill="#F5B6AD"/>
<path d="M1097.02 84.2928C1096.06 84.9576 1095.01 84.6039 1093.99 84.5615C1093.23 84.1749 1092.47 83.7883 1091.71 83.4064C1093.64 82.3927 1095.82 82.8783 1097.86 82.4351C1099.21 82.1428 1100.15 81.6571 1100.11 80.3087C1100.06 78.7669 1099.06 77.9843 1097.46 78.055C1096.68 78.088 1095.91 78.0408 1095.13 78.0267C1097.25 77.0696 1099.56 77.6872 1101.73 77.1969C1102.03 77.244 1102.33 77.2865 1102.63 77.3336C1102.9 78.1068 1103.56 78.0078 1104.18 78.0833C1107.51 78.4699 1110.36 77.0884 1112.99 75.4099C1117.55 72.4914 1122.13 69.7521 1127.6 68.861C1129.85 68.4932 1131.42 67.1966 1132.43 64.9193C1134.61 59.9829 1137.43 55.3764 1140.88 51.1943C1141.03 51.3546 1141.19 51.5149 1141.35 51.6753C1138.88 56.5551 1136.23 61.369 1134.46 66.5601C1133.73 68.7007 1132.58 70.1481 1130.49 70.7516C1124.25 72.5527 1119.36 76.5556 1114.44 80.502C1110.65 80.5916 1106.86 80.6057 1103.24 81.9165C1103.06 82.0673 1102.89 82.2135 1102.72 82.3644L1102.74 82.3738C1100.78 82.817 1098.72 83.0197 1097.02 84.2928Z" fill="#E3988A"/>
<path d="M1180.94 132.804C1182.89 132.681 1184.4 131.446 1186.14 130.781C1192.51 135.906 1197.71 141.979 1201.26 149.41C1202.44 151.88 1203.81 154.261 1205.05 156.704C1206.87 160.315 1209.5 163.248 1212.57 165.822C1212.07 166.704 1211.57 167.59 1211.06 168.472C1210.2 169.377 1209.95 170.74 1208.83 171.442C1207.52 170.759 1207.6 169.344 1207.18 168.217C1204.83 161.937 1202.59 155.657 1199.07 149.853C1196.5 145.633 1192.7 143.078 1188.96 140.291C1186.08 138.151 1183.08 136.137 1180.89 133.195C1180.92 133.059 1180.94 132.931 1180.94 132.804Z" fill="#E3988A"/>
<path d="M1142.77 37.9737C1139.32 38.8601 1138.57 38.4641 1137.53 35.0458C1136.22 30.76 1136.04 26.3469 1136.13 21.9102C1136.45 21.9196 1136.78 21.9337 1137.1 21.9432C1138.52 23.3105 1140.29 23.0653 1141.99 22.9003C1143.95 22.707 1144.91 23.6924 1145.31 25.4416C1145.48 26.1441 1145.59 26.8561 1145.72 27.5633C1146.59 27.3558 1146.61 26.691 1146.93 26.2761C1147.36 25.7009 1147.77 24.9748 1148.59 25.3096C1149.43 25.6538 1149.87 26.427 1149.85 27.3841C1149.84 28.0819 1149.32 28.4827 1148.91 28.9495C1146.9 31.2079 1146.9 31.9811 1148.89 34.3433C1147.13 36.0312 1144.67 36.5451 1142.77 37.9737Z" fill="#F5B6AD"/>
<path d="M1208.83 171.433C1209.95 170.73 1210.2 169.368 1211.06 168.462C1211.05 169.089 1211.06 169.721 1211.72 170.056C1213.54 170.985 1214.74 172.461 1215.52 174.318C1209.35 178.326 1203.17 182.305 1196.37 185.186C1195.4 185.596 1194.22 186.436 1193.32 185.573C1192.26 184.564 1192.91 183.159 1193.42 182.051C1194.74 179.226 1196.78 176.973 1199.31 175.167C1203.11 175.525 1206.64 175.191 1208.83 171.433Z" fill="#63544C"/>
<path d="M1145.58 177.558C1146.37 178.02 1147.15 178.482 1147.94 178.944C1150.6 180.726 1153.17 179.797 1155.73 178.67C1156.59 178.293 1157.43 177.85 1158.27 177.44C1158.66 179.802 1160.38 181.872 1159.79 184.441C1152.76 185.04 1145.71 185.446 1138.65 185.054C1137.31 184.979 1135.35 185.233 1134.98 183.715C1134.61 182.216 1136.15 181.08 1137.44 180.297C1139.92 178.774 1142.59 177.661 1145.58 177.558Z" fill="#63544C"/>
<path d="M1137.09 21.9478C1136.77 21.9383 1136.45 21.9242 1136.12 21.9148L1135.97 21.8865C1135.97 21.8865 1135.81 21.8865 1135.81 21.8865C1135.56 21.6083 1135.33 21.6224 1135.09 21.8959C1134.94 19.562 1134.88 17.2517 1136.48 15.2856C1142.92 15.5591 1149.22 16.5539 1155.2 19.1141C1155.45 19.2226 1155.8 19.0905 1156.11 19.0717C1156.81 20.175 1159.63 20.4249 1157.54 22.6408C1156.36 21.745 1155.08 21.1179 1153.36 21.0519C1154.48 22.3297 1156.53 21.8818 1157.02 23.6451C1157.04 24.1213 1156.88 24.5315 1156.51 24.8427C1155.99 24.1826 1155.24 24.3335 1154.55 24.2911C1154.25 24.1213 1153.95 23.9516 1153.65 23.7818C1153.4 23.4895 1153.09 23.3481 1152.71 23.466C1152.66 23.4801 1152.63 23.5791 1152.59 23.6404C1152.92 23.7111 1153.26 23.7866 1153.6 23.8573C1153.9 24.0223 1154.2 24.192 1154.5 24.3571C1155.01 24.9417 1156.43 25.1963 1155.8 26.1864C1155.19 27.153 1154.59 25.7385 1153.9 25.6489C1153.37 25.5829 1152.86 25.4132 1152.34 25.2859C1152.24 25.2387 1152.14 25.1869 1152.04 25.135C1151.92 24.8097 1151.69 24.7908 1151.42 24.8898C1151.17 24.7814 1150.92 24.6777 1150.67 24.5692C1150.31 23.961 1149.76 23.796 1149.09 23.8809C1148 23.4942 1146.93 23.051 1145.81 22.7351C1142.97 21.9242 1140.09 21.2122 1137.09 21.9478Z" fill="#9F7D54"/>
<path d="M1180.94 132.804C1180.93 132.936 1180.92 133.063 1180.89 133.191C1178.21 133.422 1175.57 133.162 1172.93 132.757L1172.94 132.771C1172.8 132.601 1172.66 132.427 1172.51 132.257C1168.95 129.73 1165.26 127.368 1162.61 123.775C1166.23 124.034 1169.91 123.252 1173.47 124.657C1176.23 125.75 1178.36 127.245 1179.14 130.296C1179.4 131.276 1179.64 132.474 1180.94 132.804Z" fill="#B9B8D6"/>
<path d="M1156.12 19.0717C1155.81 19.0905 1155.46 19.2225 1155.21 19.1141C1149.22 16.5539 1142.93 15.5591 1136.48 15.2856C1136.67 14.9509 1136.8 14.5737 1137.04 14.2813C1139.98 10.7216 1149.78 9.70791 1153.36 12.617C1155.39 14.2672 1156.07 16.5445 1156.12 19.0717Z" fill="#623B17"/>
<path d="M1140.88 51.1802C1137.42 55.3623 1134.61 59.9687 1132.43 64.9052C1131.42 67.1825 1129.86 68.4791 1127.6 68.8468C1122.13 69.738 1117.55 72.4773 1112.99 75.3958C1110.36 77.0743 1107.51 78.4558 1104.18 78.0691C1103.55 77.9984 1102.9 78.0927 1102.63 77.3195C1106.07 77.3478 1109.1 75.9946 1111.81 74.1417C1116.53 70.9167 1121.54 68.4744 1127.15 67.3805C1128.84 67.0505 1129.71 66.0604 1130.38 64.6412C1132.89 59.3181 1136.07 54.3958 1139.48 49.6243C1139.84 49.1245 1140.37 48.7521 1140.82 48.323C1140.99 48.3324 1141.15 48.3466 1141.32 48.356C1140.79 49.2424 1140.87 50.2184 1140.88 51.1802Z" fill="#F5B6AD"/>
<path d="M1159.79 184.441C1160.38 181.867 1158.66 179.797 1158.27 177.44C1159.24 176.831 1160.21 176.223 1161.19 175.615C1163.3 175.134 1164.06 176.162 1164.01 178.119C1163.99 178.746 1164 179.368 1163.97 179.995C1163.82 183.729 1163.64 183.913 1159.79 184.441Z" fill="#623B17"/>
<path d="M1215.52 174.323C1214.74 172.465 1213.54 170.99 1211.72 170.061C1211.07 169.726 1211.06 169.094 1211.07 168.467C1211.57 167.586 1212.07 166.699 1212.58 165.817C1214.11 164.615 1215.29 165.044 1216.12 166.671C1216.78 167.977 1217.51 169.278 1217.95 170.669C1218.6 172.744 1216.77 173.39 1215.52 174.323Z" fill="#623B17"/>
<path d="M1142.77 37.9737C1144.68 36.5403 1147.13 36.0311 1148.89 34.3432C1149.53 34.3243 1150.18 34.3055 1150.83 34.2866C1151.64 35.3522 1152.45 36.4225 1153.27 37.488C1150.08 38.0821 1147.08 39.2184 1144.26 40.812C1143.76 39.8643 1143.26 38.9213 1142.77 37.9737Z" fill="#E3988A"/>
<path d="M1160.13 39.4116C1159.02 38.8317 1157.89 38.2518 1156.78 37.6719C1156.5 34.8429 1156.21 32.014 1155.94 29.1804C1155.83 28.0205 1156.21 27.2001 1157.5 27.054C1157.94 27.8272 1158.38 28.6051 1158.82 29.3831C1158.77 30.9296 1158.92 32.4478 1159.14 33.9895C1159.41 35.8142 1160.64 37.4597 1160.13 39.4116Z" fill="#9F7D54"/>
<path d="M1160.13 39.4116C1160.64 37.4643 1159.41 35.8141 1159.15 33.9895C1158.93 32.443 1158.77 30.9295 1158.83 29.3831C1161.5 34.2017 1163.67 39.2183 1164.93 44.6027C1163.18 43.009 1162.13 40.7695 1160.13 39.4116Z" fill="#E3988A"/>
<path d="M1157.5 27.0539C1156.21 27.2001 1155.83 28.0205 1155.94 29.1803C1156.21 32.014 1156.5 34.8429 1156.78 37.6718C1156.2 37.6058 1155.61 37.5398 1155.03 37.4785C1154.86 34.7392 1154.69 31.9951 1154.51 29.2558C1155.36 27.0775 1153.25 26.5117 1152.35 25.2906C1152.86 25.4132 1153.38 25.5876 1153.9 25.6536C1154.59 25.7432 1155.18 27.1577 1155.8 26.1911C1156.43 25.1963 1155.01 24.9464 1154.5 24.3617L1154.56 24.291C1155.25 24.3334 1156 24.1826 1156.52 24.8427C1156.85 25.5782 1157.18 26.3137 1157.5 27.0539Z" fill="#7E6545"/>
<path d="M1101.73 77.1871C1099.56 77.6775 1097.24 77.0598 1095.13 78.017C1093.87 78.1395 1092.67 78.7289 1091.37 78.5309C1091.4 77.569 1092.1 77.1164 1092.86 76.9231C1095.83 76.164 1098.82 75.7114 1101.73 77.1871Z" fill="#F5B6AD"/>
<path d="M1157.02 23.6452C1156.54 21.8818 1154.48 22.3297 1153.36 21.052C1155.08 21.118 1156.37 21.7404 1157.54 22.6409C1157.37 22.9757 1157.2 23.3104 1157.02 23.6452Z" fill="#7E6545"/>
<path d="M1135.09 21.8961C1135.33 21.6226 1135.56 21.6038 1135.81 21.8867C1135.57 21.8867 1135.33 21.8914 1135.09 21.8961Z" fill="#F5B6AD"/>
<path d="M1141.32 48.3606C1141.16 48.3511 1140.99 48.337 1140.83 48.3276C1140.97 48.1343 1141.11 47.9409 1141.25 47.7429C1141.27 47.9504 1141.3 48.1578 1141.32 48.3606Z" fill="#DCC7A8"/>
<path d="M1154.55 127.584C1154.72 127.419 1154.88 127.25 1155.05 127.085C1154.88 127.254 1154.72 127.419 1154.55 127.584Z" fill="#E3988A"/>
<path d="M1172.51 132.252C1172.66 132.422 1172.8 132.597 1172.94 132.766C1172.8 132.597 1172.66 132.422 1172.51 132.252Z" fill="#F5B6AD"/>
<path d="M1114.45 80.4876C1119.37 76.5365 1124.25 72.5383 1130.5 70.7372C1132.59 70.1337 1133.74 68.6862 1134.47 66.5457C1136.23 61.3546 1138.88 56.5454 1141.36 51.6608C1142.39 50.1049 1143.36 48.5019 1144.46 46.9978C1146.03 44.8761 1149.21 44.2255 1151.24 45.5173C1148.25 45.6682 1146.2 47.1911 1144.67 49.7136C1141.22 55.4044 1138.1 61.2556 1136.02 67.583C1135.27 69.8697 1133.8 71.1757 1131.71 71.7273C1126.41 73.1276 1122.29 76.395 1118.14 79.7285C1115.96 81.473 1113.54 82.9534 1110.68 83.4957C1109.9 83.6465 1109.12 84.0001 1108.79 82.8733C1110.82 82.4348 1112.72 81.6616 1114.45 80.4876Z" fill="#F5B6AD"/>
<path d="M1102.74 82.3547C1102.76 82.4726 1102.75 82.5905 1102.71 82.7084C1102.33 84.2077 1100.23 83.2411 1099.83 84.7122C1098.89 84.5707 1097.96 84.4293 1097.02 84.2878C1098.72 83.0195 1100.78 82.8168 1102.74 82.3547Z" fill="#F5B6AD"/>
<path d="M1103.62 82.7085C1104.25 82.1238 1104.88 82.1804 1105.53 82.6802C1104.9 83.4676 1104.27 83.477 1103.62 82.7085Z" fill="#F5B6AD"/>
<path d="M1103.25 81.9023C1103.07 82.0532 1102.9 82.1994 1102.73 82.3503C1102.9 82.1994 1103.07 82.0485 1103.25 81.9023Z" fill="#F5B6AD"/>
<path d="M1154.52 29.2561C1153.24 30.9016 1152.48 32.9243 1150.83 34.2916C1150.18 34.3104 1149.53 34.3293 1148.89 34.3482C1146.89 31.986 1146.89 31.2128 1148.9 28.9543C1149.32 28.4876 1149.84 28.0868 1149.85 27.389C1149.87 26.4319 1149.43 25.6586 1148.58 25.3145C1147.76 24.9797 1147.36 25.7058 1146.92 26.281C1146.61 26.6959 1146.59 27.3607 1145.72 27.5682C1145.59 26.8657 1145.47 26.149 1145.31 25.4465C1144.9 23.6973 1143.94 22.7118 1141.98 22.9052C1140.28 23.0702 1138.51 23.3154 1137.09 21.948C1140.09 21.2125 1142.97 21.9245 1145.82 22.7354C1146.93 23.0513 1148.01 23.4945 1149.09 23.8811C1149.49 24.4045 1150.01 24.6497 1150.67 24.5695C1150.92 24.678 1151.17 24.7817 1151.42 24.8901C1151.53 25.206 1151.78 25.206 1152.05 25.1353C1152.15 25.1919 1152.24 25.2437 1152.35 25.2862C1153.26 26.512 1155.36 27.0778 1154.52 29.2561Z" fill="#623B17"/>
<path d="M1150.67 24.5695C1150.01 24.6543 1149.49 24.4045 1149.1 23.8811C1149.76 23.7962 1150.32 23.9613 1150.67 24.5695Z" fill="#7E6545"/>
<path d="M1153.6 23.857C1153.27 23.7862 1152.93 23.7108 1152.59 23.6401C1152.63 23.5788 1152.66 23.4798 1152.71 23.4656C1153.1 23.3478 1153.4 23.4892 1153.66 23.7815C1153.66 23.7815 1153.6 23.857 1153.6 23.857Z" fill="#7E6545"/>
<path d="M1152.05 25.1397C1151.78 25.2104 1151.53 25.2104 1151.42 24.8945C1151.7 24.7908 1151.93 24.8096 1152.05 25.1397Z" fill="#7E6545"/>
<path d="M1154.5 24.3573C1154.2 24.1923 1153.9 24.0225 1153.6 23.8575L1153.66 23.7773C1153.96 23.9471 1154.26 24.1168 1154.56 24.2865L1154.5 24.3573Z" fill="#7E6545"/>
<path d="M983.933 119.937C983.183 120.031 982.957 120.47 982.877 121.21C982.387 125.901 982.259 130.588 982.952 135.27C983.141 136.533 983.57 137.717 984.716 138.467C986.616 139.711 987.3 141.597 986.63 143.587C983.933 151.635 985.97 159.377 987.861 167.152C988.379 169.278 988.86 171.419 989.36 173.55C989.624 174.677 989.303 176.087 988.209 175.893C985.659 175.445 986.21 177.02 986.173 178.35C986.163 178.741 986.13 179.132 986.107 179.524C983.381 179.302 980.68 178.958 978.129 177.878C979.586 174.205 979.883 170.481 978.681 166.676C978.601 165.469 978.52 164.262 978.445 163.059C978.676 162.362 978.888 161.668 978.242 161.06C978.157 154.695 977.059 148.538 974.414 142.705C974.192 142.055 973.933 141.432 973.24 141.13C972.896 139.537 971.891 138.311 970.929 137.076C968.812 134.355 966.285 131.984 964.381 129.075C963.183 127.25 962.363 125.171 960.774 123.605C960.175 122.139 960.09 120.371 958.411 119.527C958.204 117.938 957.723 116.472 956.549 115.312C956.775 113.893 956.2 112.672 955.606 111.45C955.762 110.484 954.998 109.88 954.682 109.102C952.739 104.359 947.36 101.686 940.707 103.713C935.676 105.25 930.594 106.801 925.172 106.882C919.636 106.967 914.535 105.359 909.4 103.737C906.472 102.813 903.398 101.945 900.466 102.28C897.689 102.601 895.402 101.978 893.021 101.002C892.021 100.592 891.027 100.163 890.032 99.7433C891.121 97.8574 892.21 95.9761 893.304 94.0902C901.998 93.0954 910.617 93.2792 919.066 95.8441C922.347 96.839 925.591 98.1733 929.028 98.2864C939.627 98.6259 950.028 97.5085 960.038 93.6517C966.889 91.0114 971.311 86.3719 973.089 79.1959C973.886 75.9662 974.027 72.7177 973.98 69.4267C973.9 64.014 968.652 56.5786 963.73 54.4758C956.483 51.3829 949.213 51.8496 942.027 54.2684C931.65 57.7621 921.112 59.9734 910.098 59.7329C908.189 59.6905 906.991 59.285 906.595 57.3425C907.095 55.0039 907.59 52.6653 908.09 50.3267C910.287 50.2701 912.423 49.827 914.535 49.2706C922.385 48.1532 929.986 45.9277 937.647 44.0041C939.401 43.5656 941.405 43.6363 942.848 42.2171C944.875 42.2077 946.78 41.7881 948.435 40.5386C951 40.3359 953.461 39.5485 956.04 39.3034C965.564 38.3981 973.89 41.2977 981.34 47.0263C982.816 48.1626 984.584 48.9358 985.762 50.454C985.927 50.6992 986.093 50.9444 986.253 51.1848L986.239 51.1613C986.404 51.3216 986.569 51.4866 986.729 51.6469L986.715 51.628C986.922 52.0477 987.073 52.505 987.347 52.8822C995.107 63.585 998.549 75.292 995.645 88.4748C992.533 95.863 988.667 102.893 985.3 110.158C984.405 112.582 983.513 115.005 983.108 117.575C982.957 118.527 982.82 119.437 983.933 119.937ZM958.991 41.6419C956.582 41.7928 954.258 41.8211 951.91 42.1653C946.158 43.0045 940.849 44.9093 935.983 48.0542C935.356 48.4596 934.403 48.9641 934.63 49.7845C934.889 50.7181 935.95 50.7039 936.822 50.7133C941.754 50.7605 946.629 50.0674 951.509 49.4686C957.596 48.719 963.423 49.3272 968.633 52.8256C971.033 54.4381 973.23 56.3005 974.442 59.1247C976.587 64.1272 977.95 69.3135 978.412 74.7168C978.855 79.8984 978.162 84.7783 974.343 88.819C970.962 92.3928 967.535 95.962 964.909 100.163C962.113 104.633 960.896 109.645 962.928 114.52C965.239 120.05 968.383 125.241 971.693 130.286C975.64 136.307 978.393 142.734 978.756 150.089C978.931 153.653 979.468 157.232 980.204 160.73C980.746 163.309 981.231 165.954 982.372 168.382C982.688 169.057 983.089 169.674 983.966 169.406C984.683 169.189 984.862 168.543 984.796 167.887C984.687 166.803 984.584 165.709 984.334 164.653C983.504 161.178 984.287 157.595 983.65 154.134C983.141 151.333 983.579 148.58 983.763 145.836C983.891 143.879 983.811 142.003 982.905 140.376C980.784 136.567 979.548 132.615 979.006 128.235C978.082 120.781 979.416 113.855 982.957 107.414C986.262 101.403 989.615 95.4811 991.746 88.8897C994.857 79.2808 994.862 70.0019 989.949 60.9776C983.259 48.6812 972.947 42.2171 958.991 41.6419Z" fill="#D8B994"/>
<path d="M890.027 99.748C891.022 100.168 892.016 100.597 893.016 101.007C895.402 101.988 897.688 102.605 900.461 102.285C903.393 101.945 906.468 102.817 909.395 103.742C914.53 105.363 919.631 106.971 925.167 106.886C930.589 106.801 935.671 105.25 940.702 103.718C947.355 101.691 952.735 104.364 954.677 109.107C954.998 109.885 955.757 110.493 955.601 111.46C954.701 111.479 953.975 111.978 953.178 112.299C943.493 116.198 933.786 120.003 923.111 120.079C920.876 119.753 918.637 119.428 916.402 119.103C914.539 118.537 912.719 118.9 910.881 119.286C909.358 119.602 907.802 119.8 906.255 119.98C905.119 120.112 903.959 120.154 904.167 118.414C904.275 117.514 903.723 117.17 902.936 117.038C897.703 116.165 892.512 115.571 887.915 119.173C887.231 119.371 886.552 119.569 885.868 119.767C885.581 118.013 886.363 116.392 886.5 114.708C886.726 111.865 887.731 108.819 885.293 106.33C886.868 104.138 888.447 101.94 890.027 99.748Z" fill="#C5A484"/>
<path d="M996.305 113.591C1016.08 119.847 1035.86 126.109 1055.64 132.365C1056.38 132.601 1057.08 133.002 1057.9 132.804C1057.42 136.42 1056.95 140.037 1056.47 143.653C1036.68 137.165 1016.89 130.678 997.097 124.19C996.79 123.638 995.72 123.869 995.753 123.058C995.88 119.899 995.022 116.684 996.305 113.591Z" fill="#623B17"/>
<path d="M958.411 119.527C960.09 120.371 960.175 122.134 960.774 123.605C960.203 126.066 961.665 127.924 962.655 129.919C962.504 130.183 962.245 130.437 962.221 130.711C961.721 137.722 961.297 144.737 960.74 151.744C960.476 155.082 960.01 158.396 959.265 161.678C958.51 165.002 956.95 167.916 955.097 170.716C954.79 171.178 954.375 171.725 955.021 172.117C955.488 172.4 955.936 171.886 956.162 171.518C957.982 168.552 960.472 165.95 961.179 162.376C961.707 159.702 962.386 157.043 962.711 154.346C963.419 148.481 964.602 142.635 963.654 136.665C963.348 134.747 963.305 132.785 963.14 130.843C965.785 134.03 966.832 137.976 968.364 141.701C969.557 144.61 968.86 147.708 969.652 150.622C964.229 156.374 966.115 162.791 967.94 169.217C968.28 170.419 968.558 171.645 968.765 172.876C969.048 174.535 969.637 176.445 966.625 175.832C965.785 175.662 965.705 176.567 965.668 177.162C965.616 177.93 965.719 178.713 965.757 179.491C961.448 179.83 957.912 176.732 953.63 176.756C952.772 176.761 951.561 177.058 950.835 176.058C951.98 173.658 952.9 171.112 954.319 168.887C959.293 161.093 958.062 153.186 955.007 145.232C954.206 143.148 953.414 140.998 951.763 139.358L951.801 139.391C951.669 139.259 951.537 139.122 951.41 138.99C951.245 138.127 950.915 137.326 950.278 136.713C946.238 132.828 943.319 128.127 940.533 123.332C939.868 122.196 939.161 122.785 938.439 123.275C936.251 124.765 934.073 126.274 931.857 127.721C930.589 128.546 929.599 128.697 928.783 126.892C928.062 125.298 926.775 123.959 925.737 122.507C933.272 120.418 940.797 118.306 948.345 116.269C950.231 115.76 952.117 114.567 954.154 115.835C954.074 116.849 953.173 116.99 952.499 117.292C950.924 117.99 949.335 118.659 947.713 119.23C945.573 119.984 945.365 120.993 946.723 122.837C949.887 127.137 952.164 131.984 954.866 136.571C957.926 141.776 957.869 147.797 959.123 153.889C959.505 151.536 959.826 149.575 960.142 147.609C960.726 143.964 961.669 140.06 960.547 136.661C958.68 130.994 958.336 125.331 958.411 119.527ZM963.409 164.215C962.565 165.459 961.919 166.676 962.188 168.189C962.311 168.878 962.593 169.448 963.334 169.453C964.215 169.457 964.541 168.812 964.527 168.019C964.503 166.662 963.885 165.483 963.409 164.215Z" fill="#AC8B73"/>
<path d="M885.288 106.33C887.726 108.82 886.727 111.861 886.495 114.708C886.359 116.387 885.576 118.009 885.864 119.767C884.845 125.265 883.865 130.767 882.785 136.251C882.262 138.9 882.422 141.494 882.912 144.106C881.79 146.902 880.442 149.669 881.13 152.809C881.625 155.063 881.394 157.336 881.587 159.589C881.795 161.994 882.115 164.408 882.643 166.756C882.893 167.869 882.922 169.269 884.209 169.943C884.091 170.759 883.968 171.57 883.85 172.385C882.709 172.55 881.889 173.663 880.574 173.38C878.457 172.928 877.094 173.998 876.321 175.837C875.859 176.931 875.213 177.133 874.124 176.931C871.21 176.379 868.277 175.903 865.439 175.007C865.618 173.39 866.665 172.338 867.82 171.358C868.631 171.961 868.263 172.55 867.81 173.159C867.462 173.625 867.179 174.229 867.853 174.54C868.555 174.865 869.041 174.375 869.239 173.691C869.904 171.433 871.662 170.146 873.416 168.812C874.392 168.071 874.972 167.048 875.571 165.903C877.334 162.541 876.957 159.014 876.726 155.572C876.58 153.408 876.891 150.966 875.411 148.854C875.203 149.179 875.043 149.316 875.062 149.424C875.802 154.431 875.194 159.358 873.977 164.196C873.421 166.412 871.563 167.774 869.696 168.981C873.761 161.612 873.629 153.729 872.53 145.732C872.139 142.88 869.96 140.518 870.229 137.472C871.625 135.303 871.521 133.115 870.3 130.918C869.833 127.269 868.305 123.912 867.41 120.38C868.348 119.956 869.286 119.532 870.224 119.103C870.149 120.22 870.352 121.205 871.021 122.196C871.894 123.487 872.337 124.996 872.624 126.571C873.435 131.017 873.11 135.487 872.86 139.928C872.766 141.611 873.402 142.059 874.741 142.158C876.41 142.281 877.301 141.362 877.782 139.825C878.574 137.307 877.976 134.841 877.353 132.479C876.429 128.971 875.637 125.505 875.859 121.847C875.977 119.899 876.057 117.919 875.354 116.029C879.065 113.2 882.342 109.932 885.288 106.33Z" fill="#D8B994"/>
<path d="M885.288 106.33C882.342 109.932 879.069 113.2 875.373 116.038C873.662 117.066 871.95 118.089 870.243 119.112C869.305 119.536 868.367 119.961 867.428 120.39C866.58 120.682 865.736 120.97 864.887 121.262C861.827 121.894 858.753 122.389 855.622 122.441C853.906 122.323 852.19 122.21 850.474 122.092C849.512 121.894 848.55 121.696 847.588 121.493C846.513 120.875 845.434 120.814 844.208 121.139C829.53 124.996 816.555 119.739 808.516 106.721C806.328 103.18 804.603 99.4227 803.221 95.4999C803.268 94.5428 803.924 94.076 804.688 93.7036C805.324 95.0662 805.579 96.6032 806.564 97.8055C810.322 112.205 829.337 123.879 841.157 118.796C839.455 117.768 837.866 116.806 836.282 115.849C831.317 110.875 827.508 105.114 824.613 98.7296C823.849 96.391 823.297 93.9723 822.128 91.7752C821.638 89.0547 821.157 86.3295 820.261 83.6986C820.204 83.213 820.148 82.7226 820.096 82.237C819.969 81.3176 819.846 80.3982 819.719 79.4788C819.719 78.8706 819.719 78.2624 819.719 77.6541C820.247 77.6164 820.775 77.5787 821.303 77.5363C821.477 78.3614 821.656 79.1818 821.831 80.0069C822.043 81.0253 822.557 80.7377 823.109 80.3039C823.184 83.0857 822.665 85.8297 823.514 88.6586C826.14 97.3812 829.313 105.778 836.159 112.167C838.998 114.817 841.973 117.429 846.179 117.707C847.305 117.245 848.432 116.778 849.564 116.316C851.219 115.953 852.869 115.359 854.566 116.156C853.194 117.085 851.822 118.013 850.007 119.239C852.247 119.73 853.939 119.711 855.641 119.588C858.39 119.876 861.044 119.334 863.685 118.683C864.633 118.419 865.675 118.433 866.481 117.749C867.098 117.438 867.716 117.127 868.334 116.811C871.328 115.892 873.836 114.185 876.076 112.049C879.923 109.437 882.766 105.882 885.387 102.12C886.976 100.889 887.783 99.121 888.669 97.4C889.291 96.2968 889.909 95.1935 890.531 94.0949C892.455 91.0491 894.016 87.8147 895.435 84.5143C898.957 76.3245 901.913 67.9462 903.912 59.2426C904.813 56.4231 905.459 53.547 905.93 50.6332C906.345 49.4639 906.656 48.2805 906.609 47.0263C907.019 46.8849 907.425 46.7434 907.835 46.6067C908.919 47.776 908.306 49.0631 908.099 50.3267C907.599 52.6653 907.104 55.0039 906.604 57.3425C903.474 70.0679 899.221 82.3832 893.308 94.0996C892.219 95.9856 891.13 97.8668 890.036 99.7528C888.447 101.94 886.868 104.138 885.288 106.33Z" fill="#63544C"/>
<path d="M847.584 121.493C848.546 121.691 849.507 121.889 850.469 122.092C852.134 125.406 853.19 128.843 852.808 132.625C852.591 134.794 852.468 136.972 852.332 139.145C852.247 140.551 852.355 142.083 854.151 142.092C855.816 142.106 857.207 141.102 857.452 139.344C857.641 137.976 857.546 136.557 857.325 135.143C856.669 130.923 855.245 126.797 855.613 122.441C858.744 122.384 861.823 121.894 864.878 121.262C864.779 125.189 863.534 128.924 862.921 132.762C862.37 136.213 861.568 139.655 862.153 143.205C862.304 144.12 862.469 145.195 861.917 145.968C859.748 148.995 860.913 152.272 861.045 155.473C861.247 160.4 861.554 165.289 863.303 170C863.921 171.664 862.652 173.446 861.002 173.291C857.938 172.998 856.353 174.535 855.302 177.072C851.888 176.544 848.442 176.162 845.165 174.983C845.259 173.602 846.047 172.645 847.079 171.838C847.211 172.022 847.419 172.192 847.452 172.39C847.551 172.937 846.674 173.677 847.574 174.003C848.253 174.248 848.621 173.46 848.951 172.946C849.984 171.339 851.469 170.16 852.803 168.844C854.161 167.505 855.363 166.181 855.665 164.163C856.49 158.684 856.353 153.271 854.793 147.925C854.675 151.805 854.84 155.69 854.623 159.556C854.425 163.055 853.218 166.204 849.908 168.081C853.237 160.636 853.524 152.932 851.898 145.063C851.643 143.823 851.261 142.634 850.615 141.541C850.031 140.546 849.682 139.395 850.059 138.372C851.653 134.096 849.866 130.22 848.819 126.25C848.413 124.666 847.588 123.19 847.584 121.493Z" fill="#D8B994"/>
<path d="M902.767 128.504C900.815 137.519 903.757 145.841 906.392 154.214C907.448 157.576 908.453 160.952 909.424 164.337C909.924 166.082 909.778 167.444 907.354 166.841C906.26 166.567 905.831 167.345 905.364 168.09C904.544 169.401 904.572 170.943 904.172 172.362C900.452 172.046 896.722 171.758 893.21 170.315C893.252 170.165 893.252 169.971 893.351 169.872C899.169 163.767 897.505 156.699 895.765 149.735C894.723 145.553 893.082 141.545 890.796 137.849C890.234 136.944 889.909 135.958 890.154 134.935C891.3 130.126 890.074 125.609 888.556 121.12C888.433 120.753 888.367 120.366 888.273 119.984C889.169 120.097 889.961 119.701 890.73 119.367C893.747 118.042 895.011 118.32 897.415 120.46C899.919 122.7 901.314 125.604 902.767 128.504ZM899.947 159.782C899.994 155.822 899.41 152.423 899.188 149C898.91 144.723 897.425 140.782 896.123 136.793C894.549 131.946 893.837 126.906 892.634 121.979C892.474 121.323 892.469 120.107 891.413 120.343C890.593 120.522 890.866 121.639 891.036 122.2C893.016 128.801 890.913 136.246 895.694 142.361C898.061 145.393 897.717 149.697 898.297 153.427C899.009 157.977 900.107 162.739 897.675 167.251C897.448 167.67 896.788 168.543 897.618 168.877C898.537 169.25 898.754 168.222 898.938 167.609C899.749 164.893 900.089 162.107 899.947 159.782Z" fill="#AC8B73"/>
<path d="M840.954 39.3837C845.382 38.4171 847.14 34.8998 848.498 31.1845C849.87 27.4362 849.418 23.6454 848.079 19.9301C846.721 16.1535 844.778 12.6503 843.09 9.02932C842.275 7.2801 841.426 5.50259 841.501 3.41862C849.286 7.16223 856.763 19.3832 856.113 32.2595C856.165 34.037 854.967 35.4468 854.679 37.1205C852.317 40.718 848.913 43.2687 845.712 46.0222C844.646 46.0222 843.642 46.1307 843.312 47.4037C841.53 47.2198 840.054 48.3561 838.389 48.7191C833.722 49.747 829.318 50.5909 824.985 47.8705C824.98 47.7243 824.98 47.5734 824.98 47.4273C824.207 46.6257 826.664 44.7869 824.061 44.5748C824.198 43.2687 825.325 42.1938 824.943 40.7699C826.843 39.1479 828.724 37.5543 829.742 35.1262C831.525 30.8781 831.723 26.6724 830.058 22.0094C829.615 22.8863 829.832 23.3248 829.912 23.7822C830.832 29.1807 829.94 34.0229 825.791 37.9881C824.778 38.9593 823.358 39.4591 822.651 40.7651C821.883 40.7321 821.213 40.4917 820.732 39.8552C820.732 39.6949 820.732 39.5299 820.732 39.3695L820.709 39.3884C824.995 38.5586 828.413 32.8442 828.832 27.8558C829.191 23.6124 827.739 19.8405 826.103 16.0922C824.598 12.6503 822.519 9.4678 821.449 5.83264C821.213 5.03582 821.029 4.22486 820.742 3.12158C823.778 3.98912 824.806 6.98306 827.366 7.80817L827.343 7.77988C827.493 7.93075 827.644 8.08635 827.79 8.23722C828.248 9.67997 829.21 10.9577 829.214 12.5466C828.917 12.3675 828.616 12.193 828.319 12.0138C828.234 11.9007 828.248 11.5659 827.974 11.8535C828.064 11.929 828.153 12.0091 828.243 12.0846C828.224 12.7635 828.375 13.3434 829.12 13.5745C829.129 14.9701 829.959 16.0639 830.468 17.2804C833.642 24.8666 834.589 32.3255 829.096 39.379C828.21 40.4115 826.796 40.6096 825.739 41.4771C829.493 41.8731 833.137 41.3734 836.782 40.8123C838.031 40.4964 839.276 40.1805 840.525 39.8646C840.686 39.6949 840.851 39.5251 841.011 39.3554L840.954 39.3837ZM848.517 12.094C848.607 12.2119 848.602 12.5513 848.866 12.2449C848.871 12.2402 848.701 12.0846 848.616 11.9997C848.611 11.6036 848.503 11.2642 848.102 11.0992C848.079 10.4249 847.744 9.9723 847.14 9.70355C847.117 9.63282 847.107 9.55739 847.065 9.50081C847.041 9.4678 846.966 9.47723 846.914 9.4678C846.994 9.54324 847.074 9.61397 847.154 9.6894C847.136 10.3731 847.409 10.8728 848.069 11.1274C848.05 11.5282 848.121 11.8865 848.517 12.094ZM849.304 13.1973C851.813 18.8504 853.972 24.5413 853.246 30.845C852.454 37.7005 847.824 41.6374 842.289 44.8671C847.286 43.4762 851.492 41.048 853.628 36.0597C855.042 32.7499 855.278 29.2656 854.661 25.7153C853.859 21.1183 852.209 16.8937 849.304 13.1973ZM850.262 21.5143C851.011 27.3749 851.11 33.1978 846.565 37.7476C842.256 42.0617 836.683 43.4432 830.695 43.3442C837.333 44.24 843.496 43.3866 848.163 38.0541C852.506 33.0846 851.86 27.3325 850.262 21.5143ZM837.824 46.5597C835.612 46.192 833.604 47.2811 831.51 46.8662C829.436 46.456 827.423 46.0034 826.074 44.1033C827.498 48.4881 833.392 49.6998 837.824 46.5597ZM827.588 10.9011C827.475 10.8445 827.366 10.7738 827.248 10.7361C827.215 10.7267 827.149 10.8257 827.102 10.8728C827.215 10.9341 827.328 11.0049 827.451 11.0473C827.479 11.0567 827.541 10.953 827.588 10.9011Z" fill="#B6A991"/>
<path d="M996.079 127.585C1004.8 140.984 1004.76 155.648 1002.39 170.674C1001.56 170.782 1001.41 170.127 1001.13 169.75C993.891 159.976 990.331 149.16 991.779 136.897C992.123 133.959 992.26 130.998 992.491 128.051C993.603 127.264 994.876 127.684 996.079 127.585ZM999.912 165.275C999.973 165.313 1000.04 165.351 1000.1 165.389C1000.03 165.355 999.964 165.327 999.893 165.294C999.785 165.12 1000.13 164.658 999.563 164.776C999.676 164.941 999.794 165.106 999.912 165.275ZM998.007 138.891C997.95 138.547 997.894 138.203 997.833 137.863C997.771 137.901 997.672 137.929 997.658 137.981C997.54 138.372 997.672 138.674 998.026 138.877C998.082 139.532 997.814 140.263 998.493 140.767C999.728 147.609 1000.15 154.554 1001.12 161.442C1001.29 158.929 1001.52 156.407 1001.25 153.936C1000.74 149.476 1000.4 144.954 998.483 140.777C998.427 140.121 998.686 139.386 998.007 138.891ZM998.677 162.55C995.225 152.606 993.471 142.413 993.528 131.899C993.146 142.488 993.669 152.927 998.677 162.55ZM998.757 156.741C998.752 152.606 997.899 148.542 996.739 144.53C996.819 148.665 997.385 152.724 998.757 156.741ZM996.451 143.257C996.498 142.979 996.564 142.767 996.564 142.554C996.564 142.422 996.465 142.286 996.409 142.154C996.05 142.304 996.178 142.616 996.192 142.87C996.201 142.983 996.329 143.082 996.451 143.257Z" fill="#7E6545"/>
<path d="M949.005 150.876C947.407 153.898 945.705 156.873 944.238 159.961C942.131 164.384 940.943 169.019 941.466 174.007C941.617 175.459 942.074 177.242 939.972 177.925C939.396 177.359 938.651 177.675 938.001 177.534C935.521 176.992 932.847 177.308 930.561 175.898C930.867 174.158 931.848 172.701 932.715 171.249C936.883 164.304 938.463 156.595 939.585 148.735C940.382 143.144 940.98 137.561 940.174 131.903C939.972 130.47 939.825 128.938 940.368 127.495C941.9 127.839 941.947 129.249 942.423 130.347C941.985 130.649 941.942 131.106 941.895 131.587C941.108 139.032 941.112 146.538 940.047 153.959C939.34 158.887 939.113 163.894 936.256 168.293C935.474 169.5 934.215 170.702 934.516 172.918C937.11 170.037 939.278 167.166 940.16 163.884C943.069 153.035 944.54 142.007 942.489 130.776C943.107 130.899 943.333 131.408 943.607 131.884C946.997 137.754 949.481 143.893 949.005 150.876Z" fill="#AC8B73"/>
<path d="M996.078 127.585C994.876 127.684 993.603 127.264 992.49 128.051C992.505 126.151 992.245 124.284 991.882 122.427C991.986 119.074 992.259 115.741 992.825 112.436C994.027 104.477 995.64 96.5703 995.645 88.4701C998.544 75.2826 995.102 63.5803 987.346 52.8728C987.078 52.5003 986.922 52.0383 986.715 51.6187C991.632 54.3674 994.994 58.5165 996.583 63.8113C1000.26 76.037 999.633 88.3994 997.366 100.804C996.597 105.005 995.682 109.244 996.305 113.586C995.027 116.679 995.88 119.895 995.753 123.054C995.72 123.865 996.79 123.634 997.097 124.185C994.838 124.746 996.668 126.529 996.078 127.585Z" fill="#AC8B73"/>
<path d="M871.177 35.1544C874.652 33.1411 878.174 31.3117 882.361 31.3495C884.105 31.3636 885.779 31.6323 887.429 32.1698C891.328 33.4429 892.686 35.6824 891.691 39.6853C891.097 42.0758 890.729 44.4332 891.06 46.8802C888.613 47.8609 886.033 48.1108 883.436 48.257C883.313 45.8335 884.746 44.0325 885.873 42.0994C887.835 38.7424 885.633 34.895 881.748 34.6451C879.447 34.499 877.707 35.508 875.986 36.7574C872.29 39.4355 868.532 42.0428 866.005 45.9797C864.274 45.4705 862.629 44.7916 861.144 43.7496C862.973 42.0664 864.911 40.4963 866.438 38.5066C868.254 37.7287 869.583 36.2576 871.177 35.1544Z" fill="#D8B994"/>
<path d="M769.548 83.3355C769.949 81.4496 771.151 79.9597 772.127 78.3849C775.625 72.727 777.761 66.5128 779.699 60.2185C782.047 52.5898 786.771 46.8471 793.542 42.7687C797.012 40.68 800.699 39.5343 804.721 41.3213C804.716 41.4627 804.716 41.6089 804.716 41.7503C804.466 42.566 804.065 43.3722 803.99 44.2068C803.811 46.1069 803.962 47.9457 806.093 48.8321C805.452 50.6803 803.971 51.9533 802.872 53.4856C802.25 49.3507 799.27 47.6533 795.696 46.6726C792.528 45.8051 789.779 46.6915 787.667 49.1998C786.564 50.5106 785.63 51.9769 784.683 53.4149C782.136 57.2811 781.5 61.8875 779.821 66.0932C778.115 70.3743 776.96 74.8817 774.041 78.6253C773.301 79.5777 771.693 79.8135 771.731 81.3883L771.74 81.3694C771.198 81.492 771.198 81.9729 771.075 82.369C770.788 83.0479 770.269 83.3544 769.548 83.3355Z" fill="#AC8B73"/>
<path d="M804.683 93.7036C803.919 94.0761 803.268 94.5429 803.217 95.5C801.609 95.2595 799.53 96.8343 798.516 94.2883C799.822 92.3222 801.576 90.7615 803.179 89.0642C804.504 87.6686 804.589 87.2631 804.202 85.5186C801.689 88.5455 799.888 92.2326 795.701 93.1756C793.938 93.1897 792.481 92.7182 791.934 90.8087C793.15 90.2382 793.556 89.2386 793.452 87.9656C801.35 85.4856 809.143 82.751 816.447 78.7905C817.177 78.3944 818.116 78.253 818.474 77.3289C818.889 77.4373 819.304 77.5457 819.719 77.6589C819.719 78.2671 819.719 78.8753 819.719 79.4836C816.607 81.6665 812.915 83.0009 809.667 86.1268C813.731 85.1744 816.635 82.9584 820.091 82.2465C820.148 82.7321 820.204 83.2225 820.256 83.7081C818.535 84.6652 816.819 85.6176 815.098 86.5747C814.202 87.1688 812.797 86.702 812.217 87.9609C808.427 88.1919 806.663 91.0916 804.683 93.7036Z" fill="#D8B994"/>
<path d="M804.707 41.7504C804.707 41.609 804.707 41.4628 804.711 41.3214C806.239 40.7273 807.847 40.2794 809.275 39.5014C813.066 37.4363 815.023 34.3575 815.126 29.8359C815.263 23.9046 813.16 18.8173 810.176 13.9562C808.186 10.7171 806.706 7.30356 805.989 3.56938C805.857 2.89043 805.833 2.16906 805.909 1.4854C805.975 0.877184 806.178 0.151093 806.88 0.0237912C807.498 -0.0893658 807.832 0.504708 808.073 0.995055C811.251 7.45443 815.843 13.1406 818.38 19.9441C818.568 20.4439 818.634 20.9908 818.757 21.5142C817.63 21.203 817.357 20.1327 816.833 19.3029C815.579 17.3274 814.363 15.3283 813.123 13.348C812.689 12.6549 812.345 12.5606 812.208 13.5178C811.703 13.8525 811.831 14.1401 812.269 14.4089L812.25 14.3853C812.415 14.5503 812.58 14.7153 812.745 14.8804L812.727 14.8568C812.731 15.2623 812.797 15.63 813.212 15.828L813.198 15.8045C813.071 16.8135 813.646 17.6008 814.037 18.4495C816.225 23.2115 816.843 28.1056 815.513 33.2354C814.938 35.4466 813.481 37.1487 812.038 39.492C814.089 38.6858 814.933 37.4457 815.758 36.1586C817.654 33.2071 817.385 29.8737 817.517 26.6063C818.71 26.9599 818.299 27.9594 818.361 28.7515C818.705 32.9289 817.357 36.847 816.498 40.8357C816.286 41.2035 815.933 41.2837 815.551 41.3072C811.925 41.0526 808.346 42.104 804.707 41.7504ZM811.303 11.1132C811.369 11.3206 811.43 11.5328 811.496 11.7403C811.557 11.6978 811.619 11.6554 811.675 11.613C811.553 11.4432 811.435 11.2735 811.312 11.1085C811.255 10.901 811.194 10.6888 811.138 10.4814C811.076 10.5191 811.015 10.5615 810.954 10.5993C811.072 10.769 811.185 10.9434 811.303 11.1132Z" fill="#92827A"/>
<path d="M905.925 50.6381C905.454 53.5566 904.803 56.4327 903.907 59.2475C898.82 59.2003 894.096 57.5313 889.593 55.4709C887.405 54.4713 884.798 53.2784 884.392 50.2279C887.386 49.6244 890.385 49.0256 893.379 48.4221C893.624 49.0916 894.218 49.2236 894.817 49.3509C898.344 51.2699 902.167 50.6381 905.925 50.6381Z" fill="#D8B994"/>
<path d="M950.844 176.053C951.57 177.053 952.782 176.756 953.64 176.751C957.916 176.728 961.457 179.825 965.767 179.486C967.077 185.101 966.894 185.365 961.306 185.681C959.666 185.776 958.02 185.865 956.375 185.879C955.229 185.889 953.682 186.44 953.942 184.21C954.041 183.352 953.159 183.654 952.692 183.64C951.207 183.597 949.713 183.578 948.227 183.635C947.19 183.677 946.888 183.291 946.926 182.258C947.025 179.396 948.355 177.374 950.844 176.053Z" fill="#7E6545"/>
<path d="M969.656 150.627C968.864 147.708 969.562 144.61 968.369 141.706C966.837 137.976 965.79 134.035 963.145 130.848C962.985 130.541 962.82 130.235 962.66 129.928C961.669 127.929 960.208 126.076 960.778 123.615C962.367 125.18 963.188 127.255 964.385 129.08C966.29 131.989 968.817 134.36 970.934 137.081C971.896 138.311 972.896 139.542 973.244 141.135C973.183 141.522 973.042 141.913 973.075 142.291C973.466 146.873 973.872 151.485 975.272 155.865C976.059 158.335 976.564 161.032 978.445 163.064C978.525 164.271 978.605 165.478 978.685 166.681C974.81 161.211 972.669 155.04 971.486 148.415C970.392 148.92 970.392 150.065 969.656 150.627Z" fill="#7E6545"/>
<path d="M865.448 175.012C868.287 175.907 871.215 176.384 874.133 176.935C875.222 177.138 875.868 176.935 876.33 175.841C877.103 174.003 878.466 172.932 880.583 173.385C881.898 173.668 882.719 172.555 883.86 172.39C883.869 172.701 883.893 173.017 883.888 173.328C883.803 177.279 883.327 177.779 879.433 178.006C879.041 178.029 878.64 178.1 878.259 178.043C876.047 177.699 875.057 178.732 875.161 180.853C875.25 182.687 874.331 183.003 872.728 182.923C870.224 182.796 867.711 182.876 865.203 182.885C864.378 182.89 863.515 182.942 863.713 181.726C864.081 179.429 863.954 177.006 865.448 175.012Z" fill="#7E6545"/>
<path d="M884.218 169.943C882.926 169.269 882.903 167.868 882.653 166.756C882.125 164.403 881.804 161.994 881.597 159.589C881.403 157.335 881.634 155.063 881.139 152.809C880.446 149.674 881.799 146.901 882.922 144.105C884.911 150.626 886.924 157.147 888.881 163.677C889.635 166.185 889.315 166.515 886.66 166.817C884.859 167.02 884.826 168.736 884.218 169.943Z" fill="#AC8B73"/>
<path d="M775.592 93.2323C773.819 93.27 772.315 92.841 771.641 90.9645C771.858 90.3185 772.523 90.2054 772.975 89.8376C775.135 90.0781 776.408 89.0879 776.889 87.0087L776.875 87.0181C777.28 87.0653 777.615 86.9615 777.794 86.5608C782.023 84.9766 786.248 83.3924 790.477 81.8035C790.35 82.3693 790.227 82.935 790.1 83.5008C788.553 85.2359 787.672 87.0794 789.157 89.3095C787.408 89.0267 786.743 90.427 785.918 91.4784C784.767 92.9494 783.692 94.4865 781.943 95.3069C780.5 95.9811 779.105 96.1885 778.265 94.3639C779.52 91.0493 783.626 89.6584 784.022 85.7121C781.5 88.574 779.458 91.9404 775.592 93.2323Z" fill="#AC8B73"/>
<path d="M908.09 50.3222C908.297 49.0634 908.915 47.7715 907.826 46.6022C917.175 44.4051 926.148 40.751 935.691 39.2941C940.028 38.6341 944.262 39.3413 948.435 40.5341C946.78 41.7836 944.875 42.2032 942.848 42.2126C942.485 42.0712 942.126 41.8307 941.754 41.7977C934.521 41.1848 927.501 42.2032 920.947 45.3009C918.722 46.3523 915.987 46.8568 914.535 49.2661C912.423 49.8272 910.287 50.2704 908.09 50.3222Z" fill="#AC8B73"/>
<path d="M902.766 128.504C901.314 125.605 899.914 122.695 897.406 120.465C895.001 118.325 893.737 118.047 890.72 119.371C889.956 119.706 889.159 120.102 888.264 119.989C888.146 119.716 888.028 119.442 887.905 119.173C892.502 115.571 897.693 116.165 902.927 117.038C903.714 117.17 904.266 117.514 904.157 118.414C903.95 120.154 905.11 120.112 906.246 119.98C907.793 119.801 909.348 119.603 910.871 119.287C912.715 118.905 914.53 118.537 916.397 119.103C912.781 120.692 908.929 121.455 905.119 122.384C904.275 121.686 903.856 121.719 903.705 122.969C903.493 124.827 903.092 126.661 902.766 128.504Z" fill="#7E6545"/>
<path d="M829.205 12.5512C829.2 10.9576 828.238 9.68457 827.781 8.24182C827.63 8.09094 827.479 7.93535 827.333 7.78447L827.357 7.81276C827.06 5.66749 826.027 3.63538 826.362 1.3911C826.447 0.834749 826.598 0.245389 827.145 0.0520795C827.786 -0.174235 828.182 0.382121 828.404 0.853608C831.256 6.84621 835.499 12.0609 838.05 18.2185C838.163 18.4967 838.154 18.822 838.206 19.1285C837.216 19.2039 836.956 18.4212 836.527 17.7706C834.429 14.6022 832.392 11.4008 830.483 8.09094C830.657 10.9576 832.774 13.0793 833.283 15.7903C833.51 15.9601 833.741 16.1298 833.967 16.2995L833.948 16.276C833.943 16.6814 833.995 17.0586 834.434 17.2425L834.42 17.2237C834.406 17.6291 834.457 18.0063 834.901 18.1855L834.891 18.1713C834.886 20.7127 836.339 22.9098 836.589 25.404C836.914 28.6761 836.914 31.8681 834.872 34.6923C835.051 33.7776 835.202 32.8535 835.415 31.9482C836.589 26.908 835.066 22.4383 832.501 18.1902L832.505 18.1996C832.435 16.6579 831.869 15.366 830.615 14.4183L830.629 14.4277C830.469 14.2674 830.308 14.1071 830.148 13.9468L830.157 13.961C830.181 13.2584 829.898 12.754 829.2 12.5324L829.205 12.5512Z" fill="#92827A"/>
<path d="M992.825 112.44C992.26 115.746 991.981 119.079 991.882 122.431C989.233 121.601 986.583 120.772 983.933 119.942C982.82 119.442 982.957 118.532 983.108 117.575C983.513 115.005 984.405 112.582 985.3 110.158C987.809 110.918 990.317 111.677 992.825 112.44Z" fill="#623B17"/>
<path d="M893.205 170.325C896.717 171.768 900.442 172.055 904.167 172.371C904.171 173.229 904.176 174.087 904.181 174.946C904.185 176.751 903.247 177.661 901.489 177.85C898.443 178.18 895.392 178.076 892.342 178.081C891.276 178.081 890.989 177.534 891.031 176.61C891.139 174.3 891.672 172.14 893.205 170.325Z" fill="#7E6545"/>
<path d="M978.129 177.874C980.68 178.953 983.381 179.297 986.107 179.519C986.196 179.736 986.309 179.948 986.366 180.174C987.455 184.743 987.007 185.37 982.401 185.629C980.288 185.747 978.171 185.747 976.064 185.922C974.433 186.059 974.159 185.229 974.461 183.946C975.027 181.532 976.158 179.444 978.129 177.874Z" fill="#7E6545"/>
<path d="M833.279 15.7856C832.769 13.0698 830.652 10.9481 830.478 8.08618C832.387 11.396 834.424 14.5974 836.522 17.7658C836.951 18.4165 837.215 19.1991 838.201 19.1237C838.333 19.4396 838.465 19.7555 838.597 20.0714C837.932 20.7362 838.38 20.9295 839.007 21.0521C841.327 26.9881 842.02 33.0939 840.945 39.3882L840.997 39.3647C840.558 39.2751 840.568 39.6051 840.511 39.8739C839.262 40.1898 838.017 40.5057 836.768 40.8215C836.928 38.3274 838.229 36.0737 838.418 33.6219C838.597 31.2834 839.554 28.7986 837.843 26.5873C837.465 23.5651 836.607 20.7173 834.891 18.1666L834.9 18.1807C834.933 17.7658 834.834 17.4122 834.42 17.2189L834.434 17.2378C834.453 16.8228 834.335 16.4787 833.948 16.2712L833.967 16.2948C833.854 15.9647 833.642 15.7761 833.279 15.7856Z" fill="#7E6545"/>
<path d="M905.129 122.384C908.934 121.455 912.79 120.691 916.407 119.103C918.642 119.428 920.881 119.753 923.116 120.079C923.116 120.291 923.116 120.498 923.116 120.71C919.009 122.346 915.549 125.062 911.904 127.471C910.287 128.542 909.122 128.806 908.175 126.51C907.543 124.977 906.171 123.751 905.129 122.384Z" fill="#AC8B73"/>
<path d="M949.005 150.876C949.486 143.893 946.997 137.755 943.602 131.875C943.328 131.399 943.102 130.89 942.484 130.772C942.466 130.63 942.442 130.489 942.418 130.348C941.942 129.249 941.895 127.835 940.363 127.495C940.08 126.09 940.287 124.709 940.542 123.332C943.328 128.127 946.252 132.828 950.287 136.713C950.924 137.326 951.249 138.127 951.419 138.99C951.499 139.174 951.391 139.542 951.81 139.391L951.773 139.358C951.353 139.857 951.537 140.447 951.716 140.909C953.272 144.912 951.202 147.906 949.005 150.876Z" fill="#7E6545"/>
<path d="M893.374 48.4266C890.38 49.0301 887.382 49.6289 884.388 50.2324C877.707 50.5766 871.153 49.9401 864.793 47.7477C862.869 46.7906 860.945 45.8335 859.027 44.8716C858.729 44.4237 858.272 43.9428 858.81 43.4336C859.677 42.6085 860.361 43.641 861.144 43.7542C862.629 44.7962 864.274 45.4751 866.005 45.9843C871.625 48.1768 877.462 48.7614 883.435 48.2616C886.033 48.1155 888.612 47.8656 891.059 46.8849C892.342 47.0216 893.455 46.3992 894.643 46.0928C895.218 45.9466 895.953 45.659 896.246 46.4605C896.585 47.3941 895.817 47.6345 895.142 47.8609C894.553 48.0542 893.959 48.2333 893.374 48.4266Z" fill="#63544C"/>
<path d="M845.169 174.983C848.451 176.162 851.893 176.544 855.306 177.072C854.609 182.852 854.609 182.848 848.899 182.843C847.965 182.843 847.032 182.843 846.098 182.843C843.024 182.843 842.935 182.81 843.529 179.698C843.84 178.067 843.774 176.251 845.169 174.983Z" fill="#7E6545"/>
<path d="M930.556 175.898C932.847 177.308 935.516 176.987 937.996 177.534C938.647 177.676 939.396 177.36 939.967 177.926C937.821 178.524 937.256 180.222 937.312 182.122C937.35 183.466 936.827 183.668 935.676 183.635C933.163 183.565 930.645 183.536 928.142 183.649C926.492 183.725 926.374 182.933 926.525 181.627C926.826 178.958 928.411 177.242 930.556 175.898Z" fill="#7E6545"/>
<path d="M923.116 120.71C923.116 120.498 923.116 120.291 923.116 120.079C933.79 119.998 943.498 116.198 953.183 112.299C953.979 111.978 954.71 111.479 955.606 111.46C956.2 112.676 956.775 113.902 956.549 115.321C955.752 115.491 954.96 115.661 954.163 115.83C952.126 114.562 950.236 115.755 948.355 116.264C940.806 118.301 933.281 120.418 925.747 122.502C924.742 122.087 924.356 120.772 923.116 120.71Z" fill="#7E6545"/>
<path d="M871.177 35.1541C869.588 36.2574 868.258 37.7285 866.439 38.5064C864.722 35.0928 862.568 33.966 859.135 34.7109C857.419 35.0834 856.311 36.5875 854.68 37.1249C854.967 35.4465 856.17 34.0414 856.113 32.2639C859.39 31.4671 862.662 30.9532 866.028 31.8301C868.141 32.3818 870.008 33.1975 871.177 35.1541Z" fill="#AC8B73"/>
<path d="M869.706 168.986C871.573 167.779 873.426 166.417 873.987 164.201C875.203 159.363 875.812 154.436 875.071 149.429C875.057 149.32 875.218 149.184 875.42 148.858C876.901 150.975 876.59 153.418 876.736 155.577C876.967 159.019 877.344 162.546 875.581 165.907C874.982 167.053 874.402 168.076 873.426 168.816C871.672 170.151 869.913 171.438 869.249 173.696C869.051 174.375 868.56 174.87 867.862 174.545C867.188 174.229 867.471 173.63 867.82 173.164C868.273 172.56 868.645 171.971 867.829 171.363C868.456 170.57 869.084 169.778 869.706 168.986Z" fill="#DCC7A8"/>
<path d="M816.508 40.8261C817.366 36.8326 818.714 32.9146 818.37 28.7372C818.304 27.9498 818.714 26.9455 817.522 26.5966C817.517 26.309 817.512 26.0214 817.507 25.7338C818.153 25.0643 817.611 24.8804 817.078 24.6918C816.164 21.5611 815.574 18.2937 813.198 15.7996L813.212 15.8231C813.217 15.413 813.108 15.064 812.727 14.8519L812.745 14.8755C812.58 14.7104 812.415 14.5454 812.25 14.3804L812.274 14.404C812.255 14.1069 812.231 13.8099 812.213 13.5129C812.349 12.5557 812.698 12.65 813.127 13.3431C814.367 15.3281 815.584 17.3225 816.838 19.298C817.366 20.1278 817.635 21.1981 818.762 21.5093C819.398 24.1732 820.666 26.6862 820.662 29.501C819.846 33.32 819.238 37.1957 817.366 40.6988C817.083 40.746 816.795 40.7884 816.508 40.8261Z" fill="#7E6545"/>
<path d="M849.917 168.081C853.222 166.199 854.434 163.055 854.632 159.556C854.849 155.69 854.684 151.805 854.802 147.925C856.363 153.276 856.504 158.684 855.674 164.163C855.368 166.181 854.17 167.505 852.812 168.844C851.478 170.155 849.988 171.339 848.96 172.946C848.63 173.46 848.262 174.243 847.584 174.003C846.683 173.677 847.56 172.932 847.461 172.39C847.423 172.192 847.216 172.022 847.088 171.838C847.654 170.768 848.361 169.802 849.314 169.038C849.851 168.934 849.95 168.543 849.95 168.081H849.917Z" fill="#DCC7A8"/>
<path d="M772.975 89.8375C772.523 90.2053 771.858 90.3184 771.641 90.9644C767.563 89.5782 766.978 87.4471 769.548 83.331C770.269 83.3498 770.788 83.0481 771.075 82.3739C771.481 82.1617 772.004 82.0297 771.735 81.3743C771.735 81.3743 771.726 81.3932 771.726 81.3885C772.452 81.7704 772.848 81.0726 773.39 80.8604C773.956 80.6435 774.569 80.106 775.107 80.6246C775.833 81.3224 774.97 81.8599 774.706 82.4399C774.14 83.6752 772.561 84.3494 772.744 85.9996C772.579 86.1599 772.391 86.3014 772.249 86.4805C771.641 87.2302 769.614 86.5937 770.052 87.862C770.552 89.3094 772.042 87.9468 773.103 87.9516C773.06 88.5833 773.018 89.2104 772.975 89.8375Z" fill="#63544C"/>
<path d="M789.161 89.3138C787.676 87.0836 788.558 85.2401 790.104 83.5051C791.26 82.8921 792.179 82.0152 792.938 80.9637C793.862 81.2655 794.947 79.6294 795.593 80.893C796.078 81.8407 794.857 82.6092 794.334 83.4296C793.829 84.2217 792.641 84.6932 793.089 85.9568C792.985 86.0699 792.886 86.1972 792.768 86.301C792.014 86.9846 789.954 86.6169 790.359 87.8757C790.826 89.3374 792.377 87.8899 793.452 87.9748C793.556 89.2478 793.15 90.2473 791.934 90.8178C790.831 90.6434 789.793 90.3558 789.161 89.3138Z" fill="#63544C"/>
<path d="M905.925 50.638C902.172 50.638 898.344 51.2745 894.813 49.3555C898.726 48.4974 902.616 47.512 906.6 47.0264C906.647 48.2805 906.34 49.4687 905.925 50.638Z" fill="#AC8B73"/>
<path d="M817.371 40.7037C819.242 37.2005 819.855 33.3202 820.666 29.5059C821.543 32.0189 821.194 34.5744 820.916 37.1251C820.836 37.8795 820.365 38.6009 820.699 39.3977L820.723 39.3788C820.322 39.3175 820.308 39.5957 820.289 39.8739C819.351 40.2558 818.512 41.0149 817.371 40.7037Z" fill="#92827A"/>
<path d="M795.706 93.1757C799.892 92.2328 801.694 88.5505 804.207 85.5188C804.593 87.2633 804.508 87.6688 803.183 89.0644C801.576 90.7617 799.822 92.3224 798.52 94.2885C797.884 93.1475 796.672 93.4728 795.706 93.1757Z" fill="#63544C"/>
<path d="M775.592 93.2321C779.458 91.9403 781.5 88.5738 784.032 85.7119C783.631 89.6583 779.524 91.0539 778.275 94.3637C777.648 93.3594 776.568 93.4207 775.592 93.2321Z" fill="#63544C"/>
<path d="M870.314 130.927C871.53 133.125 871.634 135.312 870.243 137.481C869.159 135.284 870.14 133.11 870.314 130.927Z" fill="#AC8B73"/>
<path d="M839.012 21.052C838.385 20.9294 837.937 20.7361 838.602 20.0713C838.97 20.2976 839.097 20.6324 839.012 21.052Z" fill="#92827A"/>
<path d="M849.95 168.081C849.95 168.538 849.846 168.934 849.314 169.038C849.526 168.717 849.738 168.396 849.95 168.081Z" fill="#D8B994"/>
<path d="M986.257 51.18C986.092 50.9348 985.932 50.6944 985.767 50.4492C986.04 50.6142 986.305 50.7934 986.257 51.18Z" fill="#AC8B73"/>
<path d="M986.729 51.6425C986.564 51.4822 986.404 51.3172 986.239 51.1569C986.592 51.1239 986.823 51.2182 986.729 51.6425Z" fill="#AC8B73"/>
<path d="M893.299 94.0951C899.211 82.3786 903.469 70.0634 906.595 57.338C906.991 59.2758 908.184 59.686 910.098 59.7284C921.107 59.9689 931.645 57.7576 942.027 54.2639C949.213 51.8451 956.483 51.3784 963.73 54.4713C968.657 56.5741 973.9 64.0095 973.98 69.4222C974.027 72.7132 973.886 75.9664 973.089 79.1914C971.311 86.3674 966.889 91.0116 960.038 93.6472C950.028 97.4993 939.627 98.6214 929.028 98.2819C925.591 98.1735 922.347 96.8392 919.066 95.8396C910.612 93.2842 901.993 93.1003 893.299 94.0951Z" fill="#DCC7A8"/>
<path d="M958.991 41.6421C972.947 42.2173 983.259 48.6767 989.944 60.9684C994.853 69.9926 994.848 79.2715 991.741 88.8804C989.61 95.4718 986.257 101.394 982.952 107.405C979.411 113.846 978.077 120.772 979.001 128.226C979.543 132.606 980.779 136.557 982.9 140.367C983.806 141.989 983.886 143.87 983.759 145.827C983.575 148.571 983.136 151.324 983.645 154.125C984.277 157.586 983.499 161.169 984.329 164.644C984.579 165.7 984.683 166.794 984.791 167.878C984.857 168.534 984.678 169.179 983.961 169.396C983.084 169.665 982.684 169.047 982.368 168.373C981.227 165.945 980.741 163.3 980.199 160.721C979.463 157.223 978.926 153.644 978.751 150.079C978.388 142.724 975.635 136.298 971.688 130.277C968.379 125.232 965.234 120.041 962.924 114.51C960.887 109.635 962.108 104.623 964.904 100.154C967.53 95.9574 970.958 92.3836 974.338 88.8097C978.157 84.7691 978.85 79.8892 978.407 74.7075C977.945 69.309 976.587 64.1179 974.437 59.1154C973.226 56.2912 971.033 54.4288 968.629 52.8163C963.419 49.3226 957.591 48.7144 951.504 49.4593C946.629 50.0581 941.754 50.7512 936.817 50.7041C935.945 50.6947 934.884 50.7088 934.625 49.7752C934.399 48.9549 935.346 48.4504 935.978 48.0449C940.844 44.9001 946.153 42.9953 951.905 42.156C954.262 41.8213 956.587 41.793 958.991 41.6421Z" fill="#C5A484"/>
<path d="M954.163 115.826C954.96 115.656 955.752 115.487 956.549 115.317C957.723 116.477 958.204 117.943 958.411 119.532C958.336 125.336 958.68 130.999 960.552 136.656C961.674 140.056 960.731 143.96 960.146 147.604C959.831 149.57 959.51 151.532 959.128 153.885C957.874 147.793 957.93 141.772 954.871 136.567C952.174 131.979 949.892 127.132 946.728 122.832C945.37 120.984 945.578 119.975 947.718 119.226C949.34 118.655 950.934 117.986 952.504 117.288C953.183 116.981 954.083 116.84 954.163 115.826Z" fill="#C5A484"/>
<path d="M914.535 49.2662C915.987 46.8569 918.717 46.3524 920.947 45.3009C927.501 42.2033 934.521 41.1849 941.754 41.7978C942.126 41.8308 942.485 42.0713 942.848 42.2127C941.405 43.6319 939.401 43.5564 937.647 43.9996C929.986 45.9233 922.385 48.1534 914.535 49.2662Z" fill="#C5A484"/>
<path d="M974.414 142.7C977.059 148.533 978.157 154.686 978.242 161.055C976.351 156.595 975.097 151.951 974.494 147.165C974.31 145.723 973.183 144.195 974.414 142.7Z" fill="#7E6545"/>
<path d="M974.414 142.701C973.183 144.195 974.31 145.723 974.494 147.161C975.097 151.946 976.356 156.595 978.242 161.051C978.888 161.659 978.676 162.352 978.445 163.05C976.559 161.023 976.054 158.321 975.267 155.85C973.867 151.47 973.461 146.859 973.07 142.276C973.037 141.899 973.178 141.508 973.24 141.121C973.933 141.428 974.187 142.05 974.414 142.701Z" fill="#AC8B73"/>
<path d="M962.655 129.924C962.815 130.23 962.98 130.537 963.14 130.843C963.305 132.786 963.348 134.747 963.654 136.666C964.602 142.635 963.419 148.481 962.711 154.347C962.386 157.048 961.707 159.703 961.179 162.376C960.476 165.95 957.982 168.553 956.162 171.518C955.936 171.886 955.488 172.4 955.021 172.117C954.375 171.726 954.79 171.179 955.097 170.717C956.95 167.916 958.506 165.002 959.265 161.678C960.01 158.397 960.476 155.077 960.74 151.744C961.297 144.738 961.721 137.722 962.221 130.711C962.245 130.442 962.509 130.188 962.655 129.924Z" fill="#C5A484"/>
<path d="M963.409 164.215C963.89 165.483 964.503 166.662 964.527 168.015C964.541 168.807 964.211 169.453 963.334 169.448C962.593 169.443 962.311 168.878 962.188 168.185C961.919 166.676 962.56 165.459 963.409 164.215Z" fill="#C5A484"/>
<path d="M951.811 139.387C951.391 139.538 951.499 139.17 951.419 138.986C951.551 139.118 951.679 139.255 951.811 139.387Z" fill="#FDFDFD"/>
<path d="M870.243 119.112C871.955 118.089 873.666 117.061 875.373 116.038C876.076 117.929 875.995 119.909 875.877 121.856C875.656 125.515 876.448 128.985 877.372 132.488C877.994 134.855 878.593 137.321 877.801 139.834C877.316 141.371 876.429 142.29 874.76 142.168C873.426 142.069 872.789 141.625 872.879 139.938C873.124 135.491 873.449 131.026 872.643 126.58C872.355 125.006 871.912 123.497 871.04 122.205C870.371 121.219 870.168 120.234 870.243 119.112Z" fill="#DCC7A8"/>
<path d="M864.793 47.7429C871.148 49.9401 877.707 50.5766 884.388 50.2277C884.789 53.2782 887.401 54.471 889.588 55.4706C894.096 57.531 898.815 59.2001 903.903 59.2472C901.908 67.9509 898.952 76.3292 895.43 84.5189C894.011 87.8194 892.45 91.0538 890.527 94.0996C887.528 94.6606 884.562 94.6088 881.512 94.1797C877.966 93.6847 874.765 91.9354 871.181 91.728L871.186 91.7327C871.148 91.2046 870.818 90.9972 870.366 90.7379C867.226 88.9509 864.486 86.6218 861.978 84.0522C859.097 81.1054 857.216 77.5975 855.891 73.6606C854.769 70.3225 854.877 67.0315 855.552 63.7971C856.183 60.7607 857.428 57.8186 858.993 55.1217C860.568 52.4154 861.737 49.313 864.793 47.7429Z" fill="#DCC7A8"/>
<path d="M871.186 91.7326C874.765 91.94 877.971 93.6892 881.517 94.1843C884.567 94.6086 887.528 94.6652 890.532 94.1042C889.909 95.2074 889.292 96.3107 888.669 97.4093C887.839 97.447 887.179 97.2348 886.717 96.4286C885.977 95.1461 885.199 95.6695 885.062 96.7115C884.831 98.5078 884.35 100.384 885.388 102.124C882.766 105.887 879.928 109.442 876.076 112.054C874.487 112.134 874.289 111.078 873.978 109.824C872.61 104.35 870.922 98.9841 867.551 94.3352C866.391 92.7368 865.642 92.8359 864.793 94.6369C863.888 96.5512 864.043 98.6257 864.364 100.526C865.052 104.585 865.943 108.621 867.457 112.492C867.99 113.859 868.456 115.293 868.334 116.816C867.716 117.127 867.099 117.438 866.481 117.754C865.915 115.811 865.302 113.878 864.798 111.922C863.732 107.782 861.681 103.935 861.577 99.4744C861.54 97.8383 861.709 95.9382 860.866 94.1324C860.267 94.802 859.758 95.2876 859.357 95.8534C859.093 96.2211 858.965 96.6973 858.8 97.1311C858.305 98.4418 857.843 98.9228 856.259 98.0316C848.376 93.5855 841.827 87.6165 835.929 80.8459C835.061 79.8464 834.259 78.6582 832.892 78.2103C832.51 78.7761 832.812 79.1061 832.991 79.4267C835.608 84.0756 838.588 88.5029 842.1 92.4917C845.886 96.7916 850.054 100.757 855.533 102.935C856.236 103.213 857.353 103.143 856.91 104.288C856.438 105.514 855.486 104.816 854.736 104.482C847.961 101.478 841.648 97.843 836.546 92.2842C831.987 87.3147 828.705 81.7842 827.8 75.0136C827.748 74.6364 827.828 74.1555 827.329 74.0659C826.885 73.9858 826.645 74.3583 826.442 74.6977C825.33 76.5695 824.217 78.446 823.104 80.3179C822.557 80.7469 822.039 81.0392 821.826 80.0208C821.652 79.1957 821.473 78.3753 821.298 77.5502C821.591 77.107 821.883 76.6638 822.175 76.2206C822.722 75.9236 822.59 75.306 822.821 74.858C826.716 73.3964 829.658 70.5156 832.925 68.1158C833.581 68.1346 834.241 68.1488 834.896 68.1676L834.887 68.1582C834.99 68.3751 834.646 69.0635 835.377 68.6297C836.094 67.6679 835.009 66.7343 835.344 65.7772C836.843 63.962 838.493 62.2599 839.649 60.1806C840.804 63.1604 841.733 66.1779 841.502 69.4454C841.403 70.8692 841.902 72.1753 843.274 72.7222C844.59 73.2455 845.891 72.8212 846.957 71.8641C847.423 71.4445 847.801 70.9164 848.305 70.5675C850.21 69.2426 850.526 66.7249 852.303 65.3198C852.525 66.8993 851.855 68.4364 851.964 69.9687C852.464 76.9562 855.552 82.6942 860.823 87.2252C862.638 88.7858 864.642 90.1908 867.235 90.4831C860.719 85.7447 855.283 80.1198 853.85 71.9867C852.421 63.8724 856.273 56.8896 859.989 49.9776C857.796 52.6887 855.896 55.4893 854.75 58.7332C854.387 59.7563 854.241 60.935 852.841 61.1236C852.846 58.0495 853.869 55.2394 855.08 52.4765C855.976 50.4397 857.504 48.7093 857.98 46.4698L857.975 46.4745C858.485 46.3519 859.56 46.8045 858.928 45.5315C858.961 45.3146 858.994 45.0977 859.027 44.8809C860.95 45.838 862.874 46.7951 864.793 47.7569C861.738 49.327 860.568 52.4294 858.998 55.1357C857.433 57.8326 856.188 60.7747 855.557 63.8111C854.882 67.0502 854.774 70.3365 855.896 73.6746C857.221 77.6162 859.102 81.1241 861.983 84.0662C864.496 86.6358 867.231 88.9649 870.371 90.7519C870.823 90.997 871.149 91.2045 871.186 91.7326C870.771 91.7939 870.243 91.5911 870.027 92.1475C869.994 92.2371 870.239 92.5482 870.385 92.5718C871.007 92.6661 871.12 92.2088 871.186 91.7326ZM868.655 91.3931C868.603 91.2611 868.579 91.0583 868.489 91.0159C868.395 90.9735 868.23 91.0961 868.098 91.1479C868.15 91.2799 868.169 91.4827 868.263 91.5251C868.353 91.5675 868.518 91.445 868.655 91.3931ZM832.345 76.9939C832.213 76.9373 832.086 76.8807 831.954 76.8194C831.897 76.9514 831.77 77.107 831.803 77.2013C831.841 77.2956 832.044 77.3239 832.171 77.3805C832.232 77.2532 832.289 77.1259 832.345 76.9939ZM861.087 48.6952C860.96 48.6386 860.828 48.582 860.701 48.5255C860.644 48.6575 860.517 48.8131 860.554 48.9074C860.587 49.0017 860.823 49.1007 860.913 49.063C861.002 49.03 861.031 48.8272 861.087 48.6952Z" fill="#D8B994"/>
<path d="M823.104 80.3088C824.217 78.437 825.329 76.5605 826.442 74.6887C826.645 74.3492 826.885 73.9768 827.329 74.0569C827.828 74.1465 827.748 74.6274 827.8 75.0046C828.71 81.7799 831.987 87.3057 836.546 92.2752C841.643 97.834 847.961 101.474 854.736 104.473C855.486 104.807 856.443 105.5 856.91 104.279C857.348 103.134 856.235 103.204 855.533 102.926C850.054 100.743 845.891 96.7779 842.1 92.4826C838.588 88.4939 835.603 84.0666 832.991 79.4177C832.812 79.1018 832.51 78.7671 832.892 78.2013C834.259 78.6492 835.056 79.8373 835.928 80.8369C841.827 87.6122 848.371 93.5765 856.259 98.0226C857.843 98.9184 858.305 98.4328 858.8 97.1221C858.965 96.6883 859.093 96.2121 859.357 95.8443C859.762 95.2786 860.271 94.7929 860.865 94.1234C861.709 95.9292 861.54 97.8246 861.577 99.4654C861.681 103.926 863.732 107.773 864.798 111.913C865.302 113.869 865.915 115.802 866.481 117.745C865.675 118.429 864.633 118.414 863.685 118.678C863.6 117.693 862.85 117.42 862.077 117.236C859.805 116.698 857.556 115.986 855.17 116.231C854.967 116.203 854.769 116.175 854.566 116.147C852.874 115.35 851.224 115.944 849.564 116.307C848.494 115.336 847.211 115.604 846.117 116.019C845.49 116.26 846.32 117.108 846.179 117.698C841.973 117.42 838.998 114.808 836.159 112.158C829.309 105.769 826.136 97.372 823.514 88.6494C822.661 85.8347 823.179 83.0906 823.104 80.3088Z" fill="#C5A484"/>
<path d="M804.683 93.7037C806.663 91.0917 808.427 88.192 812.222 87.9563C814.452 89.7008 815.485 92.5392 817.8 94.1752C820.03 95.75 821.619 98.3007 824.608 98.7345C827.503 105.118 831.313 110.88 836.277 115.854C833.698 115.831 831.115 115.911 828.545 115.755C822.265 115.378 817.126 112.799 813.448 107.575C811.157 104.317 808.86 101.064 806.564 97.8057C805.574 96.6081 805.32 95.071 804.683 93.7037Z" fill="#C5A484"/>
<path d="M868.334 116.816C868.456 115.293 867.989 113.86 867.457 112.492C865.943 108.621 865.052 104.586 864.364 100.526C864.043 98.6259 863.887 96.5514 864.793 94.6371C865.641 92.836 866.391 92.737 867.551 94.3354C870.922 98.989 872.61 104.35 873.977 109.824C874.289 111.078 874.491 112.134 876.075 112.054C873.836 114.194 871.323 115.896 868.334 116.816Z" fill="#DCC7A8"/>
<path d="M855.618 122.441C855.245 126.797 856.669 130.923 857.329 135.143C857.551 136.557 857.645 137.976 857.456 139.344C857.211 141.107 855.825 142.106 854.156 142.092C852.36 142.078 852.251 140.546 852.336 139.145C852.468 136.972 852.591 134.789 852.812 132.625C853.194 128.848 852.138 125.406 850.474 122.092C852.185 122.21 853.901 122.328 855.618 122.441Z" fill="#DCC7A8"/>
<path d="M824.608 98.7344C821.614 98.3007 820.03 95.7499 817.8 94.1752C815.48 92.5391 814.452 89.7007 812.222 87.9562C812.797 86.6974 814.207 87.1641 815.098 86.5701C815.051 87.1123 815.348 87.414 815.815 87.6168C818.158 88.6399 820.053 90.342 822.123 91.7847C823.293 93.9771 823.844 96.3959 824.608 98.7344Z" fill="#AC8B73"/>
<path d="M822.123 91.78C820.058 90.3373 818.163 88.6352 815.815 87.6121C815.348 87.4093 815.051 87.1123 815.098 86.5654C816.819 85.6082 818.535 84.6558 820.256 83.6987C821.152 86.3343 821.633 89.0595 822.123 91.78Z" fill="#7E6545"/>
<path d="M855.165 116.241C857.551 115.991 859.8 116.707 862.072 117.245C862.846 117.429 863.595 117.702 863.68 118.688C861.04 119.343 858.385 119.885 855.637 119.593C855.481 118.476 855.325 117.358 855.165 116.241Z" fill="#D8B994"/>
<path d="M820.091 82.2417C816.635 82.9583 813.726 85.1696 809.667 86.122C812.915 82.9961 816.602 81.6617 819.719 79.4788C819.841 80.4029 819.969 81.3223 820.091 82.2417Z" fill="#DCC7A8"/>
<path d="M885.388 102.125C884.346 100.38 884.831 98.5035 885.062 96.7119C885.194 95.6699 885.977 95.1465 886.717 96.429C887.179 97.2352 887.839 97.4427 888.669 97.4097C887.783 99.1259 886.972 100.894 885.388 102.125Z" fill="#C5A484"/>
<path d="M855.165 116.241C855.321 117.358 855.481 118.476 855.636 119.593C853.934 119.711 852.242 119.73 850.002 119.244C851.817 118.018 853.189 117.089 854.561 116.161C854.764 116.184 854.967 116.213 855.165 116.241Z" fill="#DCC7A8"/>
<path d="M822.175 76.2114C821.883 76.6546 821.59 77.0978 821.298 77.541C820.77 77.5787 820.242 77.6164 819.714 77.6589C819.299 77.5504 818.884 77.442 818.469 77.3335C818.474 76.8479 818.356 76.4236 817.894 76.169C817.847 75.1977 817.809 74.2264 818.37 73.3589C818.686 73.2599 819.007 73.1656 819.323 73.0713C819.134 75.1505 819.964 76.3057 822.175 76.2114Z" fill="#623B17"/>
<path d="M846.179 117.712C846.315 117.122 845.49 116.274 846.117 116.033C847.211 115.618 848.494 115.35 849.564 116.321C848.432 116.783 847.305 117.245 846.179 117.712Z" fill="#D8B994"/>
<path d="M899.947 159.783C900.088 162.107 899.749 164.893 898.933 167.609C898.749 168.222 898.532 169.25 897.613 168.878C896.783 168.543 897.443 167.671 897.67 167.251C900.102 162.739 899.004 157.977 898.292 153.427C897.707 149.697 898.056 145.393 895.689 142.361C890.908 136.241 893.011 128.801 891.031 122.2C890.861 121.634 890.588 120.522 891.408 120.343C892.469 120.112 892.474 121.323 892.629 121.979C893.832 126.906 894.539 131.946 896.118 136.793C897.415 140.782 898.9 144.723 899.183 149C899.409 152.423 899.994 155.822 899.947 159.783Z" fill="#C5A484"/>
<path d="M817.371 40.704C818.512 41.0104 819.351 40.2561 820.294 39.8694L820.511 39.8506L820.728 39.86C821.209 40.4965 821.878 40.737 822.647 40.77C823.41 40.77 824.174 40.7747 824.943 40.7747C825.325 42.1986 824.198 43.2736 824.061 44.5796C824.113 45.6122 823.703 46.7956 824.98 47.4321C824.98 47.5783 824.98 47.7291 824.985 47.8753C825.56 49.2898 826.725 50.0724 828.106 50.3742C832.685 51.3785 836.254 53.7642 838.701 57.7813C837.819 59.7709 836.735 61.6192 834.99 62.9959C834.269 62.614 834.288 61.8125 834.052 61.1901C832.958 58.3093 831.143 56.1263 828.319 54.8015C826.404 53.9056 824.792 54.6364 824.566 56.6968C824.419 58.05 824.188 59.5258 825.452 60.6055C825.343 61.5484 825.796 62.2274 826.47 62.8026C828.04 64.1416 829.61 65.4806 831.18 66.8197C828.785 69.6203 825.296 71.0018 822.623 73.4394C821.836 73.1706 821.044 72.9066 820.256 72.6378C821.576 70.4077 820.935 68.2483 820.157 66.0134C819.148 63.1138 819.436 60.4404 821.6 57.9746C822.453 56.9986 823.014 55.6643 823.146 54.1649C823.552 49.5491 816.715 44.4476 811.284 46.9983C807.163 48.9362 805.136 52.8448 803.396 56.7817C802.264 59.3419 801.764 62.1425 800.623 64.7451C798.393 69.8278 797.695 75.6553 793.183 79.6158C792.915 79.8516 793.014 80.5022 792.943 80.9596C792.184 82.011 791.26 82.888 790.109 83.5009C790.237 82.9351 790.359 82.3693 790.486 81.8035C791 81.1105 791.637 80.4787 791.557 79.5074L791.524 79.498C791.675 79.3329 791.825 79.1726 791.976 79.0076C793.023 77.3433 794.221 75.7638 794.805 73.8448C796.488 70.9405 798.11 67.9512 798.643 64.6273C799.082 61.9021 799.822 59.4079 801.246 57.0457C801.911 55.9472 802.783 54.8722 802.868 53.4813C803.966 51.949 805.447 50.6807 806.088 48.8277C806.734 48.5024 807.507 48.3091 807.592 47.3944C808.45 47.3567 808.898 46.904 808.94 46.0506C811.161 44.4806 813.589 43.1981 815.565 41.2933C815.947 41.2698 816.3 41.1896 816.513 40.8218C816.795 40.7888 817.083 40.7464 817.371 40.704Z" fill="#D8B994"/>
<path d="M859.027 44.8667C858.994 45.0836 858.961 45.3005 858.928 45.5173C858.612 45.8332 858.291 46.1444 857.975 46.4603L857.98 46.4556C856.32 46.7196 855.033 48.1907 853.213 47.9266C850.625 47.639 848.121 47.0355 845.712 46.0313C848.913 43.2778 852.317 40.7223 854.679 37.1296C856.311 36.5921 857.419 35.088 859.135 34.7156C862.567 33.9659 864.722 35.0927 866.438 38.511C864.911 40.5007 862.973 42.0708 861.144 43.7587C860.361 43.6455 859.677 42.613 858.81 43.4381C858.272 43.9379 858.73 44.4188 859.027 44.8667Z" fill="#DCC7A8"/>
<path d="M838.696 57.7812C836.249 53.7641 832.68 51.3784 828.102 50.3741C826.715 50.0724 825.556 49.2897 824.98 47.8753C829.313 50.5957 833.717 49.7518 838.385 48.7239C840.049 48.3562 841.53 47.2246 843.312 47.4085L843.354 47.5452C843.015 48.3043 842.68 49.0634 842.341 49.8225C841.695 49.8979 840.827 49.2991 840.94 50.8409C841.119 53.3822 840.167 55.7019 838.696 57.7812Z" fill="#C5A484"/>
<path d="M849.305 13.197C852.209 16.8935 853.859 21.118 854.661 25.7103C855.278 29.2606 855.043 32.7449 853.628 36.0547C851.497 41.0478 847.291 43.4712 842.289 44.8621C847.824 41.6324 852.454 37.6955 853.246 30.8401C853.972 24.5457 851.813 18.8502 849.305 13.197Z" fill="#7E6545"/>
<path d="M837.847 26.5876C839.559 28.7989 838.606 31.2789 838.422 33.6222C838.234 36.074 836.928 38.3277 836.772 40.8218C833.132 41.3829 829.488 41.8827 825.73 41.4866C826.786 40.6191 828.201 40.4211 829.087 39.3885C830.492 39.5677 831.213 38.0118 832.552 38.0306C832.699 38.6011 831.864 39.0868 832.416 39.7233C833.345 39.53 833.84 38.95 833.99 38.0448C835.48 37.7195 836.004 36.4889 836.664 35.3196C838.224 32.5472 837.465 29.4967 837.847 26.5876Z" fill="#92827A"/>
<path d="M832.557 38.0259C831.218 38.007 830.492 39.5629 829.092 39.3838C834.58 32.3303 833.637 24.8714 830.464 17.2851C829.955 16.0687 829.125 14.9796 829.115 13.5793L829.28 13.4189C829.573 13.5981 829.865 13.7726 830.157 13.9517L830.148 13.9376C830.181 14.2252 830.308 14.4185 830.629 14.4185L830.615 14.4091C830.676 15.9555 831.256 17.2427 832.505 18.1904L832.501 18.181C832.571 18.7939 832.524 19.4587 832.736 20.0151C834.783 25.3193 835.132 30.6707 833.359 36.1164C832.821 36.6303 832.529 37.2526 832.553 38.007L832.557 38.0259Z" fill="#7E6545"/>
<path d="M850.262 21.5142C851.855 27.3323 852.501 33.0845 848.159 38.0539C843.491 43.3912 837.329 44.2399 830.69 43.344C836.683 43.443 842.251 42.0616 846.56 37.7475C851.115 33.1976 851.016 27.3795 850.262 21.5142Z" fill="#B9B8D6"/>
<path d="M824.933 40.7744C824.169 40.7744 823.405 40.7697 822.637 40.7697C823.339 39.4637 824.759 38.9639 825.777 37.9926C829.926 34.0274 830.817 29.1852 829.898 23.7867C829.818 23.3294 829.601 22.8909 830.044 22.0139C831.708 26.6769 831.51 30.8826 829.728 35.1307C828.719 37.5589 826.838 39.1525 824.933 40.7744Z" fill="#B9B8D6"/>
<path d="M845.712 46.0315C848.116 47.0358 850.625 47.6393 853.213 47.9269C852.586 49.4734 851.124 49.1009 849.932 49.3508C847.734 48.7661 845.66 47.7336 843.354 47.545L843.312 47.4082C843.642 46.1352 844.646 46.0315 845.712 46.0315Z" fill="#63544C"/>
<path d="M837.824 46.5597C833.392 49.6951 827.498 48.4881 826.074 44.1033C827.423 46.0034 829.436 46.456 831.51 46.8662C833.604 47.2811 835.612 46.192 837.824 46.5597Z" fill="#B9B8D6"/>
<path d="M824.971 47.4321C823.693 46.7956 824.103 45.6121 824.052 44.5796C826.659 44.7918 824.198 46.6306 824.971 47.4321Z" fill="#C5A484"/>
<path d="M829.111 13.5839C828.366 13.3529 828.215 12.7729 828.234 12.094L828.309 12.0186C828.606 12.1977 828.908 12.3722 829.205 12.5513L829.196 12.5278C829.219 12.8248 829.248 13.1265 829.271 13.4236C829.276 13.4236 829.111 13.5839 829.111 13.5839Z" fill="#7E6545"/>
<path d="M848.065 11.1273C847.405 10.8727 847.131 10.3729 847.15 9.68457L847.136 9.69871C847.739 9.96746 848.079 10.4248 848.098 11.0943C848.098 11.099 848.065 11.1273 848.065 11.1273Z" fill="#7E6545"/>
<path d="M848.517 12.0938C848.121 11.8863 848.051 11.528 848.065 11.1272C848.065 11.1272 848.102 11.099 848.102 11.0942C848.508 11.264 848.616 11.5987 848.616 11.9948L848.517 12.0938Z" fill="#7E6545"/>
<path d="M827.588 10.901C827.541 10.9529 827.475 11.0566 827.451 11.0472C827.329 11.0047 827.215 10.934 827.102 10.8727C827.154 10.8256 827.215 10.7266 827.248 10.736C827.371 10.7737 827.479 10.8444 827.588 10.901Z" fill="#7E6545"/>
<path d="M840.516 39.869C840.573 39.6002 840.563 39.2655 841.002 39.3598C840.841 39.5295 840.676 39.6992 840.516 39.869Z" fill="#FDFDFD"/>
<path d="M848.616 11.9995C848.706 12.0845 848.871 12.2402 848.866 12.2449C848.602 12.5516 848.607 12.2119 848.517 12.0939L848.616 11.9995Z" fill="#7E6545"/>
<path d="M828.234 12.0941C828.144 12.0186 828.055 11.9384 827.965 11.8629C828.239 11.5703 828.224 11.9054 828.309 12.0233C828.309 12.0186 828.234 12.0941 828.234 12.0941Z" fill="#7E6545"/>
<path d="M827.333 7.78442C827.484 7.9353 827.635 8.09089 827.781 8.24177C827.63 8.09089 827.484 7.9353 827.333 7.78442Z" fill="#FDFDFD"/>
<path d="M847.149 9.68897C847.069 9.61367 846.989 9.54307 846.909 9.46777C846.961 9.47719 847.036 9.47248 847.06 9.50072C847.102 9.55719 847.112 9.63249 847.135 9.70309C847.135 9.69838 847.149 9.68897 847.149 9.68897Z" fill="#7E6545"/>
<path d="M820.723 39.8601L820.506 39.8506L820.289 39.8695C820.308 39.596 820.317 39.3131 820.723 39.3744C820.723 39.5347 820.723 39.695 820.723 39.8601Z" fill="#FDFDFD"/>
<path d="M998.676 162.55C993.669 152.923 993.146 142.489 993.528 131.899C993.471 142.413 995.225 152.607 998.676 162.55Z" fill="#AC8B73"/>
<path d="M998.483 140.772C1000.39 144.95 1000.74 149.476 1001.25 153.931C1001.53 156.397 1001.3 158.924 1001.12 161.437C1000.15 154.554 999.728 147.604 998.493 140.763L998.483 140.772Z" fill="#AC8B73"/>
<path d="M998.757 156.742C997.385 152.729 996.819 148.665 996.739 144.53C997.899 148.542 998.752 152.607 998.757 156.742Z" fill="#AC8B73"/>
<path d="M998.007 138.891C998.686 139.386 998.431 140.117 998.483 140.772L998.493 140.763C997.814 140.263 998.082 139.527 998.026 138.872L998.007 138.891Z" fill="#AC8B73"/>
<path d="M996.451 143.257C996.328 143.083 996.201 142.979 996.196 142.87C996.182 142.616 996.055 142.305 996.413 142.154C996.47 142.286 996.564 142.423 996.569 142.555C996.564 142.767 996.498 142.979 996.451 143.257Z" fill="#AC8B73"/>
<path d="M998.026 138.877C997.667 138.674 997.54 138.372 997.658 137.981C997.672 137.929 997.771 137.901 997.832 137.863C997.889 138.207 997.946 138.551 998.007 138.896C998.007 138.891 998.026 138.877 998.026 138.877Z" fill="#AC8B73"/>
<path d="M999.912 165.275C999.794 165.11 999.676 164.941 999.563 164.776C1000.13 164.658 999.785 165.12 999.893 165.294L999.912 165.275Z" fill="#AC8B73"/>
<path d="M999.893 165.294C999.963 165.327 1000.03 165.355 1000.1 165.388C1000.04 165.351 999.973 165.313 999.912 165.275C999.912 165.275 999.893 165.294 999.893 165.294Z" fill="#AC8B73"/>
<path d="M942.419 130.343C942.442 130.484 942.466 130.626 942.485 130.767C944.535 141.998 943.064 153.026 940.155 163.875C939.274 167.161 937.105 170.028 934.512 172.909C934.21 170.693 935.469 169.49 936.251 168.283C939.109 163.884 939.335 158.877 940.042 153.95C941.108 146.529 941.103 139.018 941.89 131.578C941.938 131.102 941.98 130.649 942.419 130.343Z" fill="#C5A484"/>
<path d="M883.431 48.2571C877.457 48.7568 871.625 48.1769 866 45.9798C868.527 42.0381 872.285 39.4308 875.981 36.7575C877.702 35.508 879.442 34.4991 881.743 34.6452C885.628 34.8951 887.83 38.7424 885.868 42.0994C884.741 44.0325 883.313 45.8336 883.431 48.2571Z" fill="#DCC7A8"/>
<path d="M802.858 53.4858C802.773 54.8767 801.901 55.9517 801.236 57.0502C799.812 59.4124 799.072 61.9066 798.634 64.6317C798.101 67.9557 796.479 70.9403 794.796 73.8493C788.021 73.7409 783.942 77.6118 781.014 83.1848C778.388 84.5097 775.668 85.5611 772.74 86.009C772.556 84.3588 774.135 83.6846 774.701 82.4493C774.965 81.8693 775.828 81.3318 775.102 80.634C774.56 80.1154 773.951 80.6482 773.386 80.8698C772.843 81.0772 772.452 81.7798 771.721 81.3978C771.684 79.8231 773.287 79.5873 774.032 78.6349C776.95 74.8913 778.105 70.3792 779.812 66.1028C781.49 61.8971 782.127 57.2907 784.673 53.4245C785.621 51.9865 786.554 50.5248 787.658 49.2094C789.77 46.7011 792.514 45.8194 795.687 46.6822C799.256 47.6535 802.236 49.3556 802.858 53.4858ZM793.556 58.3138C791.048 56.541 791.048 56.541 789.157 59.2144C790.906 60.4308 792.519 60.7514 793.556 58.3138Z" fill="#DCC7A8"/>
<path d="M807.587 47.4037C807.503 48.3183 806.729 48.5117 806.083 48.837C803.952 47.9459 803.801 46.1118 803.981 44.2117C804.061 43.3772 804.457 42.5709 804.707 41.7552C808.347 42.1089 811.925 41.0574 815.56 41.3026C813.58 43.2074 811.157 44.4946 808.936 46.0599C807.809 46.2532 807.173 45.0981 806.14 45.0415C806.069 44.7068 805.994 44.3673 805.923 44.0325C805.862 44.075 805.768 44.1032 805.749 44.1551C805.626 44.5512 805.777 44.8482 806.107 45.0698C806.098 46.1636 807.182 46.5644 807.587 47.4037Z" fill="#B6A991"/>
<path d="M817.899 76.1646C818.356 76.4239 818.479 76.8482 818.474 77.3291C818.116 78.2532 817.177 78.39 816.447 78.786C809.143 82.7465 801.345 85.4811 793.452 87.9612C792.377 87.8763 790.826 89.3285 790.359 87.8622C789.959 86.6033 792.014 86.9758 792.769 86.2874C792.882 86.1837 792.981 86.0611 793.089 85.9432C796.05 85.6179 798.709 84.3449 801.444 83.3076C802.038 83.1331 802.637 82.9823 803.221 82.7795C808.299 80.9973 813.019 78.3994 817.899 76.1646Z" fill="#92827A"/>
<path d="M813.203 15.7998C815.579 18.294 816.168 21.5614 817.078 24.6921C816.975 25.14 817.041 25.5219 817.507 25.734C817.512 26.0217 817.517 26.3093 817.521 26.5969C817.389 29.8643 817.658 33.1977 815.763 36.1492C814.938 37.4411 814.094 38.6764 812.043 39.4826C813.486 37.144 814.942 35.4373 815.518 33.226C816.847 28.0962 816.23 23.1974 814.042 18.4401C813.655 17.5962 813.075 16.8088 813.203 15.7998Z" fill="#B6A991"/>
<path d="M811.303 11.1132C811.185 10.9435 811.072 10.7691 810.954 10.5993C811.015 10.5616 811.076 10.5192 811.138 10.4814C811.194 10.6889 811.256 10.9011 811.312 11.1085L811.303 11.1132Z" fill="#7E6545"/>
<path d="M812.731 14.8521C813.118 15.0642 813.226 15.4131 813.217 15.8233C812.802 15.63 812.731 15.2575 812.731 14.8521Z" fill="#B6A991"/>
<path d="M812.217 13.5178C812.236 13.8149 812.26 14.1119 812.279 14.4089C811.835 14.1402 811.708 13.8526 812.217 13.5178Z" fill="#B6A991"/>
<path d="M811.312 11.1035C811.435 11.2733 811.553 11.443 811.675 11.608C811.614 11.6504 811.553 11.6929 811.496 11.7353C811.43 11.5279 811.369 11.3157 811.303 11.1082C811.303 11.1129 811.312 11.1035 811.312 11.1035Z" fill="#7E6545"/>
<path d="M812.25 14.3853C812.415 14.5503 812.58 14.7153 812.745 14.8803C812.585 14.7153 812.42 14.5503 812.25 14.3853Z" fill="#B6A991"/>
<path d="M772.739 86.0041C775.667 85.5562 778.388 84.5048 781.014 83.1846C781.83 83.3638 782.504 82.9536 783.23 82.6943C786.031 81.7089 788.482 79.804 791.547 79.5117C791.627 80.4783 790.995 81.1148 790.477 81.8079C786.247 83.3921 782.018 84.9763 777.794 86.5652C777.421 86.5887 777.058 86.6312 776.874 87.0225L776.888 87.0084C775.535 86.9612 774.394 87.7722 773.098 87.9608C772.042 87.9513 770.552 89.3187 770.047 87.8712C769.609 86.6029 771.636 87.2394 772.244 86.4897C772.39 86.3106 772.574 86.1644 772.739 86.0041Z" fill="#92827A"/>
<path d="M773.098 87.961C774.395 87.7724 775.531 86.9614 776.889 87.0086C776.408 89.0878 775.135 90.0779 772.975 89.8375C773.018 89.2104 773.06 88.5833 773.098 87.961Z" fill="#DCC7A8"/>
<path d="M776.875 87.0179C777.063 86.6266 777.426 86.5841 777.794 86.5605C777.615 86.9613 777.285 87.065 776.875 87.0179Z" fill="#DCC7A8"/>
<path d="M837.847 26.5874C837.465 29.4965 838.225 32.547 836.669 35.3147C836.013 36.484 835.485 37.7145 833.995 38.0399L833.901 37.9503C833.991 37.1582 834.594 36.4792 834.41 35.6306C834.839 35.4467 834.901 35.0836 834.886 34.6829L834.882 34.6923C836.918 31.8681 836.923 28.6761 836.598 25.404C836.348 22.9098 834.896 20.7127 834.901 18.1714C836.612 20.7127 837.47 23.5652 837.847 26.5874Z" fill="#B6A991"/>
<path d="M833.364 36.1209C835.136 30.6753 834.787 25.3239 832.741 20.0196C832.524 19.4586 832.576 18.7985 832.505 18.1855C835.07 22.4336 836.593 26.8986 835.419 31.9436C835.207 32.8535 835.056 33.7729 834.877 34.6876L834.882 34.6782C834.481 34.8762 834.396 35.2251 834.406 35.6259C834.061 35.7909 833.712 35.9559 833.364 36.1209Z" fill="#B6A991"/>
<path d="M832.51 18.1949C831.261 17.2472 830.681 15.9601 830.619 14.4136C831.873 15.3613 832.439 16.6579 832.51 18.1949Z" fill="#B6A991"/>
<path d="M829.276 13.4234C829.252 13.1264 829.224 12.8246 829.2 12.5276C829.898 12.7492 830.176 13.2537 830.158 13.9562C829.861 13.777 829.568 13.6026 829.276 13.4234Z" fill="#B6A991"/>
<path d="M833.948 16.271C834.335 16.4785 834.453 16.8274 834.434 17.2375C833.995 17.0537 833.943 16.6765 833.948 16.271Z" fill="#B6A991"/>
<path d="M834.42 17.2141C834.839 17.4074 834.934 17.7563 834.901 18.1759C834.457 18.0015 834.41 17.6243 834.42 17.2141Z" fill="#B6A991"/>
<path d="M833.279 15.7857C833.637 15.7763 833.854 15.9649 833.962 16.2949C833.736 16.1252 833.51 15.9555 833.279 15.7857Z" fill="#B6A991"/>
<path d="M830.629 14.4277C830.308 14.4277 830.176 14.2344 830.148 13.9468C830.308 14.1071 830.468 14.2674 830.629 14.4277Z" fill="#B6A991"/>
<path d="M817.512 25.7339C817.045 25.5217 816.979 25.1398 817.083 24.6919C817.611 24.8805 818.153 25.0644 817.512 25.7339Z" fill="#92827A"/>
<path d="M801.444 83.3166C798.709 84.3538 796.05 85.6269 793.089 85.9522C792.646 84.6886 793.829 84.2171 794.334 83.425C794.857 82.6046 796.083 81.8361 795.593 80.8884C794.942 79.6248 793.862 81.2656 792.938 80.9591C793.009 80.5018 792.91 79.8511 793.179 79.6154C797.691 75.6549 798.384 69.8273 800.619 64.7447C801.76 62.1421 802.259 59.3414 803.391 56.7813C805.131 52.8443 807.154 48.9357 811.279 46.9979C816.711 44.4472 823.547 49.5487 823.142 54.1645C823.01 55.6686 822.453 57.0029 821.595 57.9741C819.431 60.44 819.143 63.1181 820.152 66.013C820.93 68.2478 821.572 70.4073 820.251 72.6374C819.945 72.7788 819.639 72.9203 819.332 73.0617C819.016 73.1607 818.696 73.255 818.38 73.354C813.787 73.5709 809.115 73.6935 805.8 77.5691C804.24 79.3891 801.637 80.4546 801.444 83.3166ZM813.231 59.1104C813.231 57.7714 812.703 57.0406 811.614 56.9793C810.61 56.9227 810.374 57.7101 810.327 58.5635C810.27 59.5583 810.525 60.2561 811.703 60.1948C812.561 60.1524 813.255 59.9261 813.231 59.1104Z" fill="#DCC7A8"/>
<path d="M849.927 49.3507C851.12 49.1009 852.581 49.4733 853.208 47.9268C855.028 48.1909 856.315 46.7198 857.975 46.4558C857.499 48.6954 855.971 50.4257 855.075 52.4626C853.864 55.2255 852.841 58.0355 852.836 61.1096C852.657 62.51 852.478 63.9056 852.298 65.3059C850.521 66.7156 850.205 69.2287 848.3 70.5535C847.796 70.9071 847.414 71.4352 846.952 71.8501C845.886 72.8072 844.58 73.2363 843.269 72.7082C841.897 72.1613 841.393 70.8506 841.497 69.4314C841.728 66.164 840.799 63.1465 839.644 60.1667C841.459 57.234 842.732 54.1081 843.02 50.6332C845.396 50.5908 847.725 50.2984 849.927 49.3507Z" fill="#C5A484"/>
<path d="M852.303 65.3058C852.482 63.9055 852.661 62.5099 852.841 61.1096C854.241 60.921 854.392 59.7376 854.75 58.7191C855.896 55.4753 857.801 52.6747 859.988 49.9636C856.273 56.8756 852.416 63.8584 853.85 71.9727C855.283 80.1058 860.719 85.7259 867.235 90.4691C864.642 90.1768 862.643 88.7718 860.823 87.2111C855.552 82.6801 852.463 76.9421 851.964 69.9547C851.855 68.4224 852.525 66.8853 852.303 65.3058Z" fill="#DCC7A8"/>
<path d="M825.447 60.6102C824.184 59.5305 824.415 58.0547 824.561 56.7015C824.787 54.6411 826.4 53.9103 828.314 54.8062C831.138 56.131 832.953 58.314 834.047 61.1948C834.283 61.8172 834.264 62.614 834.985 63.0006C834.886 63.953 834.556 64.9337 835.344 65.7682C835.009 66.7254 836.093 67.6589 835.377 68.6207C835.212 68.4651 835.047 68.3048 834.886 68.1492L834.896 68.1587C833.877 65.6598 832.916 63.1326 831.822 60.6667C831.251 59.3796 830.469 58.1773 828.762 58.2527C825.721 57.2249 825.348 57.4983 825.546 60.6196L825.447 60.6102Z" fill="#DCC7A8"/>
<path d="M828.762 58.2476C830.473 58.1769 831.251 59.3792 831.822 60.6616C832.916 63.1275 833.878 65.6547 834.896 68.1536C834.241 68.1347 833.581 68.1206 832.925 68.1017C832.812 67.0314 832.02 66.8994 831.176 66.824C829.606 65.4849 828.036 64.1459 826.466 62.8069C825.792 62.2317 825.334 61.5527 825.447 60.6098H825.546C827.395 61.2793 828.498 63.2925 830.638 63.4434C830.704 63.4811 830.77 63.5141 830.836 63.5518C830.77 63.5141 830.704 63.4811 830.638 63.4434C830.252 61.6235 828.955 60.1336 828.762 58.2476Z" fill="#C5A484"/>
<path d="M835.344 65.7679C834.551 64.9333 834.886 63.9527 834.985 63.0003C836.73 61.6235 837.814 59.7753 838.696 57.7856C840.167 55.7016 841.124 53.3819 840.94 50.8453C840.827 49.2988 841.699 49.9023 842.345 49.8269C842.571 50.1004 842.798 50.3691 843.029 50.6426C842.741 54.1174 841.468 57.2434 839.653 60.176C838.488 62.2506 836.843 63.9527 835.344 65.7679Z" fill="#92827A"/>
<path d="M831.176 66.8242C832.015 66.8997 832.812 67.0317 832.925 68.102C829.658 70.5018 826.716 73.3826 822.821 74.8442C822.755 74.3774 822.684 73.9107 822.618 73.4439C825.292 71.0063 828.785 69.6249 831.176 66.8242Z" fill="#92827A"/>
<path d="M822.619 73.4437C822.685 73.9105 822.751 74.3772 822.821 74.844C822.595 75.2919 822.722 75.9096 822.18 76.2066C819.964 76.3009 819.139 75.1458 819.332 73.0618C819.639 72.9203 819.945 72.7789 820.252 72.6375C821.039 72.9109 821.831 73.175 822.619 73.4437Z" fill="#7E6545"/>
<path d="M871.186 91.7329C871.12 92.2091 871.012 92.6712 870.385 92.5722C870.239 92.5486 869.993 92.2374 870.026 92.1478C870.239 91.5915 870.767 91.7942 871.186 91.7329Z" fill="#DCC7A8"/>
<path d="M857.975 46.4652C858.291 46.1493 858.612 45.8381 858.928 45.5222C859.559 46.7952 858.48 46.3379 857.975 46.4652Z" fill="#C5A484"/>
<path d="M868.654 91.3935C868.522 91.4454 868.357 91.568 868.263 91.5255C868.169 91.4831 868.15 91.2804 868.098 91.1484C868.23 91.0965 868.395 90.9739 868.489 91.0163C868.579 91.0541 868.603 91.2568 868.654 91.3935Z" fill="#DCC7A8"/>
<path d="M832.345 76.994C832.288 77.126 832.232 77.2533 832.175 77.3853C832.043 77.3287 831.845 77.3004 831.808 77.2061C831.77 77.1118 831.902 76.9515 831.958 76.8242C832.081 76.8761 832.213 76.9374 832.345 76.994Z" fill="#C5A484"/>
<path d="M861.087 48.7C861.031 48.832 861.002 49.03 860.913 49.0678C860.818 49.1055 860.587 49.0065 860.554 48.9122C860.517 48.8179 860.644 48.6576 860.701 48.5303C860.828 48.5869 860.955 48.6434 861.087 48.7Z" fill="#DCC7A8"/>
<path d="M834.886 68.1445C835.051 68.3001 835.212 68.4604 835.377 68.616C834.646 69.0545 834.99 68.3661 834.886 68.1445Z" fill="#C5A484"/>
<path d="M801.444 83.3168C801.637 80.4548 804.244 79.3893 805.8 77.5693C809.115 73.6937 813.787 73.5758 818.38 73.3542C817.814 74.2218 817.851 75.193 817.899 76.1643C813.019 78.3992 808.299 80.9923 803.216 82.784C802.637 82.9915 802.033 83.1423 801.444 83.3168Z" fill="#D8B994"/>
<path d="M791.552 79.512C788.487 79.809 786.035 81.7091 783.235 82.6945C782.509 82.9491 781.834 83.364 781.019 83.1848C783.947 77.6119 788.025 73.7409 794.8 73.8494C794.216 75.7683 793.023 77.3478 791.971 79.0122C791.821 79.1772 791.67 79.3375 791.519 79.5025L791.552 79.512Z" fill="#AC8B73"/>
<path d="M806.14 45.0366C807.172 45.0979 807.809 46.2531 808.935 46.055C808.888 46.9131 808.445 47.3611 807.587 47.3988C807.186 46.5642 806.097 46.1588 806.111 45.0602L806.14 45.0366Z" fill="#DCC7A8"/>
<path d="M791.519 79.4977C791.67 79.3327 791.821 79.1723 791.972 79.0073C791.816 79.1723 791.67 79.3374 791.519 79.4977Z" fill="#92827A"/>
<path d="M843.024 50.6379C842.798 50.3644 842.572 50.091 842.341 49.8222C842.675 49.0631 843.015 48.304 843.35 47.5449C845.655 47.7382 847.73 48.7661 849.927 49.3507C847.725 50.2984 845.396 50.5907 843.024 50.6379Z" fill="#DCC7A8"/>
<path d="M833.995 38.0396C833.844 38.9496 833.354 39.5295 832.42 39.7181C831.869 39.0816 832.703 38.596 832.557 38.0255C832.557 38.0255 832.562 38.0113 832.557 38.0113C833.005 37.9877 833.453 37.9689 833.901 37.9453L833.995 38.0396Z" fill="#B6A991"/>
<path d="M833.901 37.9457C833.453 37.9693 833.005 37.9881 832.557 38.0117C832.534 37.2573 832.826 36.635 833.364 36.121C833.713 35.956 834.061 35.791 834.41 35.626C834.594 36.4747 833.995 37.1536 833.901 37.9457Z" fill="#92827A"/>
<path d="M793.556 58.3139C792.519 60.7515 790.906 60.4309 789.157 59.2098C791.048 56.5459 791.048 56.5459 793.556 58.3139Z" fill="#7E6545"/>
<path d="M806.107 45.0651C805.777 44.8435 805.626 44.5465 805.748 44.1504C805.767 44.0986 805.862 44.0656 805.923 44.0278C805.994 44.3626 806.069 44.7021 806.14 45.0368L806.107 45.0651Z" fill="#DCC7A8"/>
<path d="M834.41 35.6257C834.401 35.2249 834.486 34.8713 834.886 34.678C834.901 35.0787 834.839 35.4465 834.41 35.6257Z" fill="#92827A"/>
<path d="M813.231 59.1106C813.25 59.9263 812.557 60.1526 811.699 60.195C810.515 60.2563 810.265 59.5538 810.322 58.5637C810.369 57.7055 810.605 56.9229 811.609 56.9795C812.703 57.0407 813.236 57.7716 813.231 59.1106Z" fill="#7E6545"/>
<path d="M830.638 63.4435C828.498 63.2926 827.394 61.2794 825.546 60.6099C825.348 57.4886 825.716 57.2199 828.762 58.243C828.955 60.1337 830.252 61.6236 830.638 63.4435Z" fill="#AC8B73"/>
<path d="M830.638 63.4438C830.704 63.4814 830.77 63.5143 830.836 63.5519C830.77 63.5143 830.704 63.4814 830.638 63.4438Z" fill="#AC8B73"/>
<path d="M649.038 9.76863C668.287 20.7395 683.456 32.607 693.335 45.0423C698.469 51.5066 702.594 58.1901 704.435 64.8815C706.63 72.8728 705.81 80.9581 704.313 88.9533C701.275 105.151 694.699 121.435 699.755 137.672C703.769 150.566 714.858 163.373 729.694 175.209C753.146 193.921 788.107 210.624 830.476 224.523H-46V-21.3625H577.784C604.851 -11.997 629.045 -1.6212 649.038 9.76863Z" fill="#4D7C0F"/>
<path d="M591.312 -25C664.306 -0.587607 707.739 34.2397 709.358 69.6621C710.123 86.467 701.918 103.24 703.049 120.041C705.921 162.864 773.87 204.277 878 226.688" stroke="#4D7C0F" stroke-width="4.0728" stroke-miterlimit="10"/>
</g>
<defs>
<clipPath id="clip0_687_2">
<rect width="1280" height="200" fill="white"/>
</clipPath>
</defs>
</svg>
